<svg xmlns="http://www.w3.org/2000/svg" width="169.987" height="158" viewBox="0 0 169.987 158"><defs><style>.a{fill:#faf7f7;}.b,.e{fill:none;}.b{stroke:#313131;stroke-dasharray:1 15;}.c{fill:#2f344f;stroke:#fff;stroke-width:0.4px;}.d{stroke:none;}</style></defs><g transform="translate(-1275.007 -3637)"><path class="a" d="M-9443,227a85.621,85.621,0,0,1-17.012-1.7,84.586,84.586,0,0,1-15.856-4.886,85.052,85.052,0,0,1-14.366-7.734,85.657,85.657,0,0,1-12.54-10.247A85.635,85.635,0,0,1-9513.154,190a85.1,85.1,0,0,1-7.887-14.27,84.618,84.618,0,0,1-5.058-15.78A85.612,85.612,0,0,1-9527.993,143h169.987a85.584,85.584,0,0,1-1.895,16.954,84.623,84.623,0,0,1-5.059,15.78,85.094,85.094,0,0,1-7.887,14.27,85.657,85.657,0,0,1-10.381,12.426,85.6,85.6,0,0,1-12.54,10.247,84.979,84.979,0,0,1-14.366,7.734,84.542,84.542,0,0,1-15.855,4.886A85.636,85.636,0,0,1-9443,227Z" transform="translate(10803 3568)"/><g class="b" transform="translate(1287 3637)"><circle class="d" cx="73.5" cy="73.5" r="73.5"/><circle class="e" cx="73.5" cy="73.5" r="73"/></g><g transform="translate(1320.528 3670.531)"><path class="c" d="M17.221,50.734H7.654c-3.384,0-6.182,3.149-6.182,7V74.3a1.1,1.1,0,0,0,1.165,1.165H5.671V85.616A3.09,3.09,0,0,0,8.705,88.65H16.17A3.09,3.09,0,0,0,19.2,85.616V75.467h3.034A1.1,1.1,0,0,0,23.4,74.3V57.735c0-3.849-2.8-7-6.182-7Zm3.849,22.4H19.2V65.082a1.165,1.165,0,1,0-2.331,0V85.616a.753.753,0,0,1-.7.7H13.608V74.885a1.1,1.1,0,0,0-1.165-1.165,1.1,1.1,0,0,0-1.165,1.165L11.271,86.32H8.705a.753.753,0,0,1-.7-.7V65.085A1.1,1.1,0,0,0,6.84,63.92a1.1,1.1,0,0,0-1.165,1.165v8.051l-1.872,0v-15.4c0-2.566,1.751-4.667,3.849-4.667h9.567c2.1,0,3.849,2.1,3.849,4.667Z" transform="translate(0 -10.181)"/><path class="c" d="M13.53,46.855a6.884,6.884,0,1,0-6.768-6.883,6.878,6.878,0,0,0,6.768,6.883Zm0-11.432a4.458,4.458,0,0,1,4.435,4.549,4.531,4.531,0,0,1-4.435,4.549,4.551,4.551,0,0,1,0-9.1Z" transform="translate(-1.093 -6.535)"/><path class="c" d="M86.631,50.734H77.064c-3.384,0-6.182,3.149-6.182,7V74.3a1.1,1.1,0,0,0,1.165,1.165h3.034V85.616a3.09,3.09,0,0,0,3.034,3.034h7.465a3.09,3.09,0,0,0,3.034-3.034V75.467h3.034A1.1,1.1,0,0,0,92.814,74.3l0-16.567c0-3.849-2.8-7-6.186-7Zm3.852,22.4H88.618V65.082a1.165,1.165,0,1,0-2.331,0V85.616a.753.753,0,0,1-.7.7H83.021V74.885a1.165,1.165,0,1,0-2.331,0L80.681,86.32H78.115a.753.753,0,0,1-.7-.7V65.085a1.165,1.165,0,0,0-2.331,0v8.051H73.219l0-15.4c0-2.566,1.751-4.667,3.849-4.667h9.567c2.1,0,3.849,2.1,3.849,4.667Z" transform="translate(-14.344 -10.181)"/><path class="c" d="M82.944,46.855a6.884,6.884,0,1,0-6.768-6.883A6.874,6.874,0,0,0,82.944,46.855Zm0-11.432a4.458,4.458,0,0,1,4.435,4.549,4.531,4.531,0,0,1-4.435,4.549,4.551,4.551,0,0,1,0-9.1Z" transform="translate(-15.438 -6.535)"/><path class="c" d="M65.271,22.12A20.815,20.815,0,0,0,44.388,1.469,20.32,20.32,0,0,0,23.969,22,20.8,20.8,0,0,0,43.685,42.537v5.482H39.6a1.2,1.2,0,0,0-1.168,1.168L38.55,67.97A5.177,5.177,0,0,0,43.682,73.1h2.566a5.006,5.006,0,0,0,5.017-5.132l.006-18.665a1.169,1.169,0,0,0-1.165-1.165H46.021V42.658A20.324,20.324,0,0,0,65.273,22.121ZM49.055,68.087a2.741,2.741,0,0,1-2.684,2.8H43.805a2.841,2.841,0,0,1-2.8-2.8L40.771,50.47h8.166ZM26.3,22A18,18,0,0,1,44.5,3.8,18.628,18.628,0,0,1,63.053,22.12a18.074,18.074,0,0,1-18.2,18.2A18.4,18.4,0,0,1,26.3,22Z" transform="translate(-4.649 0)"/><path class="c" d="M59.7,32.9V28.815a8.191,8.191,0,0,0-8.166-8.166H50.95a7.4,7.4,0,0,0,3.617-6.418,7.465,7.465,0,1,0-14.931,0,7.658,7.658,0,0,0,3.617,6.418h-.818a8.191,8.191,0,0,0-8.166,8.166l0,4.084a1.1,1.1,0,0,0,1.165,1.165H58.648A1.151,1.151,0,0,0,59.7,32.9ZM46.981,9.214a5.132,5.132,0,1,1-5.132,5.132A5.177,5.177,0,0,1,46.981,9.214ZM57.365,31.731H36.482V28.815a5.85,5.85,0,0,1,5.832-5.832h9.1a5.85,5.85,0,0,1,5.832,5.832v2.916Z" transform="translate(-6.777 -1.095)"/></g></g></svg>