<svg xmlns="http://www.w3.org/2000/svg" width="169.989" height="158" viewBox="0 0 169.989 158"><defs><style>.a{fill:#faf7f7;}.b,.e{fill:none;}.b{stroke:#313131;stroke-dasharray:1 15;}.c{fill:#2f344f;stroke:#fff;stroke-width:0.6px;}.d{stroke:none;}</style></defs><g transform="translate(-1275.006 -4144)"><g transform="translate(0 -287)"><path class="a" d="M-9438,227a85.619,85.619,0,0,1-17.011-1.7,84.529,84.529,0,0,1-15.855-4.886,84.977,84.977,0,0,1-14.366-7.734,85.605,85.605,0,0,1-12.54-10.247A85.659,85.659,0,0,1-9508.154,190a85.059,85.059,0,0,1-7.887-14.27,84.624,84.624,0,0,1-5.059-15.78A85.612,85.612,0,0,1-9522.994,143H-9353a85.584,85.584,0,0,1-1.895,16.954,84.62,84.62,0,0,1-5.059,15.78,84.958,84.958,0,0,1-7.887,14.27,85.657,85.657,0,0,1-10.381,12.426,85.6,85.6,0,0,1-12.54,10.247,84.985,84.985,0,0,1-14.366,7.734,84.6,84.6,0,0,1-15.856,4.886A85.638,85.638,0,0,1-9438,227Z" transform="translate(10798 4362)"/><g class="b" transform="translate(1287 4431)"><circle class="d" cx="73.5" cy="73.5" r="73.5"/><circle class="e" cx="73.5" cy="73.5" r="73"/></g></g><g transform="translate(1318.876 4180.875)"><path class="c" d="M30.929,52.953l-2.535.4v0a17.883,17.883,0,0,0,.661,2.743l2.438-.8v0a15.09,15.09,0,0,1-.565-2.342Z" transform="translate(-4.515 -8.903)"/><path class="c" d="M32.55,41.262l-2.284-1.168A17.742,17.742,0,0,0,29.187,42.7l2.438.792a15.038,15.038,0,0,1,.924-2.23Z" transform="translate(-4.657 -6.605)"/><path class="c" d="M32.8,58.52l-2.284,1.171h0a18.024,18.024,0,0,0,1.479,2.4l2.076-1.511A15.523,15.523,0,0,1,32.8,58.52Z" transform="translate(-4.894 -9.898)"/><path class="c" d="M30.878,47l-2.535-.4a18.086,18.086,0,0,0-.218,2.791v.016l2.567-.016A15.332,15.332,0,0,1,30.878,47Z" transform="translate(-4.467 -7.768)"/><path class="c" d="M35.935,36.376l-1.816-1.813a17.861,17.861,0,0,0-1.826,2.14l2.076,1.508v0a15.583,15.583,0,0,1,1.566-1.838Z" transform="translate(-5.212 -5.617)"/><path class="c" d="M59.149,30.257a17.4,17.4,0,0,0-2.605-1.078l-.789,2.438a15.168,15.168,0,0,1,2.23.921Z" transform="translate(-9.403 -4.655)"/><path class="c" d="M64.628,34.1a17.866,17.866,0,0,0-2.143-1.822L60.977,34.36v0a15.334,15.334,0,0,1,1.842,1.569Z" transform="translate(-10.337 -5.21)"/><path class="c" d="M52.371,30.875l.395-2.538a18.236,18.236,0,0,0-2.772-.212h-.032l.032,2.567a15.518,15.518,0,0,1,2.377.183Z" transform="translate(-8.368 -4.467)"/><path class="c" d="M46.347,30.933l-.4-2.535a17.488,17.488,0,0,0-2.74.664L44,31.5a15.514,15.514,0,0,1,2.345-.568Z" transform="translate(-7.161 -4.516)"/><path class="c" d="M40.685,32.812l-1.171-2.284a18.232,18.232,0,0,0-2.4,1.479l1.514,2.073A15.7,15.7,0,0,1,40.685,32.812Z" transform="translate(-6.074 -4.896)"/><path class="c" d="M58.57,66.4l1.177,2.281a18.011,18.011,0,0,0,2.393-1.482L60.62,65.125A15.145,15.145,0,0,1,58.57,66.4Z" transform="translate(-9.907 -11.078)"/><path class="c" d="M66.734,57.967l2.288,1.161A17.765,17.765,0,0,0,70.1,56.52l-2.445-.786a14.846,14.846,0,0,1-.918,2.233Z" transform="translate(-11.365 -9.4)"/><path class="c" d="M68.388,46.324l2.535-.4a17.583,17.583,0,0,0-.667-2.74l-2.438.8a15.2,15.2,0,0,1,.571,2.342Z" transform="translate(-11.559 -7.157)"/><path class="c" d="M34.547,65.074a17.887,17.887,0,0,0,2.14,1.829L38.2,64.827a15.3,15.3,0,0,1-1.838-1.569Z" transform="translate(-5.614 -10.744)"/><path class="c" d="M65.137,38.616a15.383,15.383,0,0,1,1.271,2.053l2.284-1.174h0A18.011,18.011,0,0,0,67.206,37.1Z" transform="translate(-11.08 -6.071)"/><path class="c" d="M68.711,49.992a15.686,15.686,0,0,1-.18,2.361l2.538.385h0a18.372,18.372,0,0,0,.212-2.785h-.449Z" transform="translate(-11.686 -8.367)"/><path class="c" d="M40.074,69a18.115,18.115,0,0,0,2.605,1.081l.792-2.438a15.2,15.2,0,0,1-2.23-.927Z" transform="translate(-6.602 -11.361)"/><path class="c" d="M63.3,62.8l1.822,1.809a18.165,18.165,0,0,0,1.822-2.143l-2.079-1.5A15.844,15.844,0,0,1,63.3,62.8Z" transform="translate(-10.751 -10.334)"/><path class="c" d="M46.983,68.523l-.4,2.535a18.262,18.262,0,0,0,2.807.218h.067l-.067-2.567a15.5,15.5,0,0,1-2.406-.186Z" transform="translate(-7.765 -11.685)"/><path class="c" d="M53.008,68.384l.411,2.535a18.3,18.3,0,0,0,2.737-.667l-.8-2.438h0a15.391,15.391,0,0,1-2.342.571Z" transform="translate(-8.913 -11.558)"/><path class="c" d="M34.375,47.208a12.849,12.849,0,1,0,3.763-9.07,12.819,12.819,0,0,0-3.763,9.07Zm23.1,0A10.266,10.266,0,1,1,47.208,36.942,10.268,10.268,0,0,1,57.475,47.208Z" transform="translate(-5.584 -5.584)"/><path class="c" d="M47.918,40.625v1.54a3.84,3.84,0,0,0-2.39,3.593,3.769,3.769,0,0,0,3.674,3.85,1.3,1.3,0,1,1-1.107,1.283H45.528a3.84,3.84,0,0,0,2.39,3.593v1.54h2.567v-1.54a3.84,3.84,0,0,0,2.39-3.593,3.769,3.769,0,0,0-3.674-3.85,1.3,1.3,0,1,1,1.107-1.283h2.567a3.84,3.84,0,0,0-2.39-3.593v-1.54Z" transform="translate(-7.576 -6.7)"/><path class="c" d="M56.25,48.438h2.567V51H56.25Z" transform="translate(-9.492 -8.096)"/><path class="c" d="M40.625,48.438h2.567V51H40.625Z" transform="translate(-6.7 -8.096)"/><path class="c" d="M80.124,48.041V35.208H70.432c-.183-.821-.4-1.636-.648-2.438l8.39-4.845L71.757,16.811l-8.4,4.848c-.565-.616-1.161-1.213-1.777-1.777l4.851-8.39L55.317,5.075l-4.838,8.39c-.8-.257-1.611-.465-2.438-.648V3.124H35.208v9.692c-.821.183-1.636.4-2.438.648l-4.838-8.39L16.818,11.492l4.848,8.4c-.616.565-1.213,1.155-1.777,1.777l-8.4-4.851L5.075,27.931l8.39,4.838c-.257.8-.465,1.611-.648,2.438H3.124V48.041h9.692c.183.821.4,1.636.648,2.438l-8.39,4.838,6.417,11.113,8.4-4.848c.565.616,1.155,1.213,1.777,1.777l-4.851,8.4,11.113,6.417,4.838-8.39c.8.257,1.611.465,2.438.648v9.692H48.041V70.432c.821-.183,1.636-.4,2.438-.648l4.845,8.39,11.113-6.417-4.848-8.4c.616-.565,1.213-1.161,1.777-1.777l8.4,4.848,6.417-11.113-8.4-4.835c.257-.8.465-1.611.648-2.438ZM74.67,56.254l-3.85,6.673-8.008-4.62-.693.812a27.421,27.421,0,0,1-3.006,3.006l-.805.687,4.62,8.008-6.673,3.85-4.62-8-1.007.356a27.091,27.091,0,0,1-4.107,1.094l-1.046.2v9.24h-7.7v-9.24l-1.052-.193a27.092,27.092,0,0,1-4.107-1.094l-1.007-.356-4.62,8-6.673-3.85,4.626-8.011-.812-.693a27.421,27.421,0,0,1-3.006-3.006l-.687-.805-8.008,4.62-3.85-6.673,8-4.62-.356-1.007a27.091,27.091,0,0,1-1.094-4.107l-.2-1.046H5.692v-7.7h9.24l.193-1.052a27.093,27.093,0,0,1,1.094-4.107l.356-1.007-8-4.614,3.85-6.673,8.008,4.62.693-.812a27.421,27.421,0,0,1,3.006-3.006l.805-.687-4.62-8.008,6.673-3.85,4.62,8,1.007-.356a27.09,27.09,0,0,1,4.107-1.094l1.046-.2V5.691h7.7v9.24l1.052.193a27.093,27.093,0,0,1,4.107,1.094l1.007.356,4.62-8,6.673,3.85-4.626,8.011.812.693a27.421,27.421,0,0,1,3.006,3.006l.693.812,8.008-4.62L74.677,27l-8,4.62.356,1.007,0,0a26.36,26.36,0,0,1,1.094,4.107l.193,1.043h9.24v7.7h-9.24l-.193,1.052a27.094,27.094,0,0,1-1.094,4.107l-.356,1.007Z"/><path class="c" d="M44.975,21.875A23.124,23.124,0,1,0,61.3,28.648a23.1,23.1,0,0,0-16.327-6.773Zm0,43.633a20.561,20.561,0,1,1,14.511-6.022,20.523,20.523,0,0,1-14.511,6.022Z" transform="translate(-3.35 -3.35)"/></g></g></svg>