<svg xmlns="http://www.w3.org/2000/svg" width="169.987" height="158" viewBox="0 0 169.987 158"><defs><style>.a{fill:#faf7f7;}.b,.e{fill:none;}.b{stroke:#313131;stroke-dasharray:1 15;}.c{fill:#2f344f;stroke:#fff;stroke-width:0.7px;}.d{stroke:none;}</style></defs><g transform="translate(-475.007 -4035)"><path class="a" d="M-9451,227a85.638,85.638,0,0,1-17.013-1.7,84.542,84.542,0,0,1-15.855-4.886,84.977,84.977,0,0,1-14.366-7.734,85.6,85.6,0,0,1-12.54-10.247A85.659,85.659,0,0,1-9521.154,190a85.1,85.1,0,0,1-7.887-14.27,84.619,84.619,0,0,1-5.058-15.78A85.612,85.612,0,0,1-9535.993,143h169.987a85.584,85.584,0,0,1-1.895,16.954,84.623,84.623,0,0,1-5.059,15.78,85.06,85.06,0,0,1-7.887,14.27,85.657,85.657,0,0,1-10.381,12.426,85.605,85.605,0,0,1-12.54,10.247,84.979,84.979,0,0,1-14.366,7.734,84.528,84.528,0,0,1-15.855,4.886A85.619,85.619,0,0,1-9451,227Z" transform="translate(10011 3966)"/><g class="b" transform="translate(487 4035)"><circle class="d" cx="73.5" cy="73.5" r="73.5"/><circle class="e" cx="73.5" cy="73.5" r="73"/></g><g transform="translate(518.875 4066.875)"><path class="c" d="M44.7,51.892A24.417,24.417,0,1,0,27.464,44.74,24.383,24.383,0,0,0,44.7,51.892Zm-7.7-4V42.908a1.289,1.289,0,0,0-.388-.921l-3.824-3.709a3.045,3.045,0,0,1-.921-2.172V28.1a4.446,4.446,0,0,1,4.44-4.44h4.979a2.226,2.226,0,0,1,1.614.7,1.8,1.8,0,0,1,.51,1.287c0,.038-.006.074-.01.112a1.975,1.975,0,0,1-.148.606c-.006.013-.016.026-.022.042a1.885,1.885,0,0,1-1.739,1.1H37a1.283,1.283,0,0,0-1.283,1.283v2.567a1.285,1.285,0,0,0,.375.908l.218.218a5.524,5.524,0,0,0,3.025,1.527,6.39,6.39,0,0,1,5.364,6.33h2.567a8.949,8.949,0,0,0-7.511-8.861,3,3,0,0,1-1.473-.667v-.738h3.208a4.552,4.552,0,0,0,.885-.087,4.464,4.464,0,0,0,1.611-.664c.042-.026.074-.064.116-.093h0a4.719,4.719,0,0,0,.571-.468c.013-.013.019-.029.032-.038v0a4.471,4.471,0,0,0,6.413,0,4.425,4.425,0,0,0,5.133.908V37.57a4.347,4.347,0,0,1-2.974,4.123,1.281,1.281,0,0,0-.876,1.216v4.986a21.422,21.422,0,0,1-15.4,0Zm2.567-30.011V15.317a1.925,1.925,0,1,1,3.85,0v6.3a4.742,4.742,0,0,0-2.13-.526h-1.72ZM52.4,19.167a1.925,1.925,0,1,1,3.85,0v6.417a1.925,1.925,0,1,1-3.85,0Zm-2.567,0v6.417a1.925,1.925,0,0,1-3.85,0V15.317a1.925,1.925,0,0,1,3.85,0ZM37,21.092H36.3a6.93,6.93,0,0,0-3.157.76V17.884a1.925,1.925,0,0,1,3.85,0Zm7.7-15.4A21.81,21.81,0,0,1,54.962,46.749V43.765a6.911,6.911,0,0,0,3.85-6.2V26.225h-.064a4.777,4.777,0,0,0,.064-.642V19.167a4.5,4.5,0,0,0-4.492-4.492,4.41,4.41,0,0,0-1.944.462A4.473,4.473,0,0,0,44.7,12.179c-.013-.013-.019-.029-.032-.042a4.477,4.477,0,0,0-7.44,1.826,4.465,4.465,0,0,0-6.648,3.921v6.186A6.973,6.973,0,0,0,29.3,28.1v8.008a5.628,5.628,0,0,0,1.7,4.014l3.436,3.33v3.3A21.81,21.81,0,0,1,44.7,5.692Z" transform="translate(-3.071 0)"/><path class="c" d="M24.165,78.94a6.414,6.414,0,1,0-12.057-3.048,6.085,6.085,0,0,0,.051.8l-1.335-1.335V66.908a1.282,1.282,0,0,0-1.283-1.283H4.408a1.283,1.283,0,0,0-1.283,1.283V77.175a1.281,1.281,0,0,0,.215.712l4.918,7.376v4.745a1.282,1.282,0,0,0,1.283,1.283H26.224a1.282,1.282,0,0,0,1.283-1.283V84.079a5.631,5.631,0,0,0-3.343-5.14Zm.776,9.785H10.824v-3.85a1.281,1.281,0,0,0-.215-.712L5.691,76.787v-8.6H8.258v7.7a1.285,1.285,0,0,0,.375.908l3.85,3.85a1.285,1.285,0,0,0,.908.375h1.771a1.283,1.283,0,0,0,.844-2.249,3.8,3.8,0,0,1-1.331-2.884,3.849,3.849,0,1,1,6.369,2.884,1.283,1.283,0,0,0,.844,2.249,3.058,3.058,0,0,1,3.054,3.054Z" transform="translate(0 -11.167)"/><path class="c" d="M56.978,78.94a6.414,6.414,0,1,0-12.057-3.048,6.085,6.085,0,0,0,.051.8l-1.335-1.335V66.908a1.282,1.282,0,0,0-1.283-1.283H37.221a1.283,1.283,0,0,0-1.283,1.283V77.175a1.281,1.281,0,0,0,.215.712l4.918,7.376v4.745a1.282,1.282,0,0,0,1.283,1.283H59.037a1.282,1.282,0,0,0,1.283-1.283V84.079a5.631,5.631,0,0,0-3.343-5.14Zm.776,9.785H43.637v-3.85a1.281,1.281,0,0,0-.215-.712L38.5,76.787v-8.6h2.567v7.7a1.285,1.285,0,0,0,.375.908l3.85,3.85a1.285,1.285,0,0,0,.908.375h1.771a1.283,1.283,0,0,0,.844-2.249,3.8,3.8,0,0,1-1.331-2.884,3.849,3.849,0,1,1,6.369,2.884,1.283,1.283,0,0,0,.844,2.249,3.058,3.058,0,0,1,3.054,3.054Z" transform="translate(-5.863 -11.167)"/><path class="c" d="M88.228,78.94a6.414,6.414,0,1,0-12.057-3.048,6.086,6.086,0,0,0,.051.8l-1.335-1.335V66.908A1.282,1.282,0,0,0,73.6,65.625H68.471a1.283,1.283,0,0,0-1.283,1.283V77.175a1.281,1.281,0,0,0,.215.712l4.918,7.376v4.745A1.282,1.282,0,0,0,73.6,91.292H90.287a1.282,1.282,0,0,0,1.283-1.283V84.079a5.631,5.631,0,0,0-3.343-5.14ZM89,88.725H74.887v-3.85a1.281,1.281,0,0,0-.215-.712l-4.918-7.376v-8.6h2.567v7.7a1.285,1.285,0,0,0,.375.908l3.85,3.85a1.285,1.285,0,0,0,.908.375h1.771a1.283,1.283,0,0,0,.844-2.249,3.8,3.8,0,0,1-1.331-2.884,3.849,3.849,0,1,1,6.369,2.884,1.283,1.283,0,0,0,.844,2.249A3.058,3.058,0,0,1,89,84.079Z" transform="translate(-11.446 -11.167)"/><path class="c" d="M90.625,3.125h2.567V5.692H90.625Z" transform="translate(-15.633)"/><path class="c" d="M90.625,9.375h2.567v2.567H90.625Z" transform="translate(-15.633 -1.117)"/><path class="c" d="M93.75,6.25h2.567V8.817H93.75Z" transform="translate(-16.192 -0.558)"/><path class="c" d="M87.5,6.25h2.567V8.817H87.5Z" transform="translate(-15.075 -0.558)"/><path class="c" d="M85.938,48.438H88.5V51H85.938Z" transform="translate(-14.796 -8.096)"/><path class="c" d="M85.938,54.688H88.5v2.567H85.938Z" transform="translate(-14.796 -9.213)"/><path class="c" d="M89.062,51.562h2.567v2.567H89.062Z" transform="translate(-15.354 -8.654)"/><path class="c" d="M82.812,51.562h2.567v2.567H82.812Z" transform="translate(-14.237 -8.654)"/><path class="c" d="M6.25,3.125H8.817V5.692H6.25Z" transform="translate(-0.558)"/><path class="c" d="M6.25,9.375H8.817v2.567H6.25Z" transform="translate(-0.558 -1.117)"/><path class="c" d="M9.375,6.25h2.567V8.817H9.375Z" transform="translate(-1.117 -0.558)"/><path class="c" d="M3.125,6.25H5.692V8.817H3.125Z" transform="translate(0 -0.558)"/><path class="c" d="M10.938,40.625H13.5v2.567H10.938Z" transform="translate(-1.396 -6.7)"/><path class="c" d="M10.938,46.875H13.5v2.567H10.938Z" transform="translate(-1.396 -7.817)"/><path class="c" d="M14.062,43.75h2.567v2.567H14.062Z" transform="translate(-1.954 -7.258)"/><path class="c" d="M7.813,43.75h2.567v2.567H7.813Z" transform="translate(-0.838 -7.258)"/></g></g></svg>