<svg xmlns="http://www.w3.org/2000/svg" width="169.987" height="158" viewBox="0 0 169.987 158"><defs><style>.a{fill:#faf7f7;}.b,.e{fill:none;}.b{stroke:#313131;stroke-dasharray:1 15;}.c{fill:#2f344f;stroke:#2f344f;stroke-width:0.6px;}.d{stroke:none;}</style></defs><g transform="translate(-875.007 -4035)"><path class="a" d="M-9443,227a85.621,85.621,0,0,1-17.012-1.7,84.586,84.586,0,0,1-15.856-4.886,85.052,85.052,0,0,1-14.366-7.734,85.657,85.657,0,0,1-12.54-10.247A85.635,85.635,0,0,1-9513.154,190a85.1,85.1,0,0,1-7.887-14.27,84.618,84.618,0,0,1-5.058-15.78A85.612,85.612,0,0,1-9527.993,143h169.987a85.584,85.584,0,0,1-1.895,16.954,84.623,84.623,0,0,1-5.059,15.78,85.094,85.094,0,0,1-7.887,14.27,85.657,85.657,0,0,1-10.381,12.426,85.6,85.6,0,0,1-12.54,10.247,84.979,84.979,0,0,1-14.366,7.734,84.542,84.542,0,0,1-15.855,4.886A85.636,85.636,0,0,1-9443,227Z" transform="translate(10403 3966)"/><g class="b" transform="translate(886.5 4035)"><circle class="d" cx="73.5" cy="73.5" r="73.5"/><circle class="e" cx="73.5" cy="73.5" r="73"/></g><g transform="translate(917.578 4071.5)"><path class="c" d="M49.55,15.146c3,0,5.351-2.837,5.351-6.323S52.469,2.5,49.55,2.5,44.2,5.337,44.2,8.823,46.631,15.146,49.55,15.146Zm0-11.43c2.27,0,4.135,2.27,4.135,5.107s-1.865,5.025-4.135,5.025-4.135-2.27-4.135-5.025S47.28,3.716,49.55,3.716Z" transform="translate(-6.453)"/><path class="c" d="M42.467,28.909a24.637,24.637,0,0,0,6.4,1.054,23.427,23.427,0,0,0,6.24-1.054c1.539-.567,2.514-1.216,2.675-1.944a17.477,17.477,0,0,0-.161-3.565,3.053,3.053,0,0,0-2.514-2.188,15.092,15.092,0,0,1-3-1.539.634.634,0,0,0-.811.975l.082.082a16.968,16.968,0,0,0,3.4,1.783,1.794,1.794,0,0,1,1.539,1.216,17.683,17.683,0,0,1,.161,2.919s-.323.488-1.865,1.054a23.062,23.062,0,0,1-5.756.972,24.515,24.515,0,0,1-5.918-.972,3.781,3.781,0,0,1-1.865-.972,18.669,18.669,0,0,1,.161-3c.161-.728,1.054-1.054,1.539-1.216a13.7,13.7,0,0,0,3.4-1.783.577.577,0,0,0,.161-.893.587.587,0,0,0-.893-.161,13.081,13.081,0,0,1-3,1.539,3.057,3.057,0,0,0-2.514,2.188,17.211,17.211,0,0,0-.161,3.565c.171.64,1.064,1.368,2.685,1.938Z" transform="translate(-5.609 -3.226)"/><path class="c" d="M77.448,15.146c3,0,5.351-2.837,5.351-6.323S80.367,2.5,77.448,2.5,72.1,5.337,72.1,8.823,74.45,15.146,77.448,15.146Zm0-11.43c2.27,0,4.135,2.27,4.135,5.107s-1.865,5.025-4.135,5.025-4.135-2.27-4.135-5.025,1.865-5.107,4.135-5.107Z" transform="translate(-11.738)"/><path class="c" d="M85.423,23.495a3.053,3.053,0,0,0-2.514-2.188,15.092,15.092,0,0,1-3-1.539.673.673,0,0,0-.893.244.645.645,0,0,0,.161.811,16.968,16.968,0,0,0,3.4,1.783,1.794,1.794,0,0,1,1.539,1.216,17.683,17.683,0,0,1,.161,2.919s-.323.488-1.865,1.054a23.062,23.062,0,0,1-5.756.972,24.515,24.515,0,0,1-5.918-.972,3.781,3.781,0,0,1-1.865-.972,18.669,18.669,0,0,1,.161-3C69.2,23.1,70.1,22.77,70.58,22.608a13.7,13.7,0,0,0,3.4-1.783.642.642,0,1,0-.731-1.054,13.081,13.081,0,0,1-3,1.539A3.057,3.057,0,0,0,67.74,23.5a17.211,17.211,0,0,0-.161,3.565c.161.649,1.133,1.377,2.675,1.865a24.637,24.637,0,0,0,6.4,1.054,23.427,23.427,0,0,0,6.24-1.054c1.539-.567,2.514-1.216,2.675-1.944a22.932,22.932,0,0,0-.149-3.489Z" transform="translate(-10.876 -3.245)"/><path class="c" d="M20.05,15.146c3,0,5.351-2.837,5.351-6.323S22.969,2.5,20.05,2.5,14.7,5.337,14.7,8.823,17.052,15.146,20.05,15.146Zm0-11.43c2.27,0,4.135,2.27,4.135,5.107s-1.865,5.025-4.135,5.025-4.135-2.27-4.135-5.025S17.78,3.716,20.05,3.716Z" transform="translate(-0.863)"/><path class="c" d="M19.266,29.96a23.427,23.427,0,0,0,6.24-1.054c1.539-.567,2.514-1.216,2.675-1.944A17.477,17.477,0,0,0,28.02,23.4a3.053,3.053,0,0,0-2.514-2.188,15.092,15.092,0,0,1-3-1.539.673.673,0,0,0-.893.244.645.645,0,0,0,.161.811,16.968,16.968,0,0,0,3.4,1.783,1.794,1.794,0,0,1,1.539,1.216,17.683,17.683,0,0,1,.161,2.919s-.323.488-1.865,1.054a23.062,23.062,0,0,1-5.756.972,24.515,24.515,0,0,1-5.918-.972,3.781,3.781,0,0,1-1.865-.972,18.166,18.166,0,0,1,.161-3c.161-.728,1.054-1.054,1.539-1.216a13.7,13.7,0,0,0,3.4-1.783.577.577,0,0,0,.161-.893.587.587,0,0,0-.893-.161,13.081,13.081,0,0,1-3,1.539A3.057,3.057,0,0,0,10.337,23.4a17.211,17.211,0,0,0-.161,3.565c.161.649,1.133,1.377,2.675,1.865a24.928,24.928,0,0,0,6.415,1.13Z" transform="translate(0 -3.227)"/><path class="c" d="M72.518,36.193H13.593c-1.7,0-2.593.244-2.593,1.621,0,.488,0,.972,23.993,29.179l1.944,2.27c.244,1.216.082,10.293,0,15.967a.649.649,0,1,0,1.3,0c.405-15.967,0-16.533-.161-16.7-.161-.244-.811-.972-2.026-2.349C20.97,48.512,13.027,38.95,12.216,37.652V37.57a3.11,3.11,0,0,1,1.377-.161H72.6c-2.837,3.568-24.639,30.234-24.639,31.367v1.3a74.94,74.94,0,0,1,.082,8.428c-.567.488-3.4,2.432-6,4.135a.642.642,0,1,0,.731,1.054c.972-.649,5.756-3.809,6.24-4.376.32-.326.564-1.137.237-9.242V68.94c1.3-2.188,23.261-29.423,24.639-30.962a.892.892,0,0,0,.244-1.216,1.6,1.6,0,0,0-1.621-.57Z" transform="translate(-0.162 -6.379)"/></g></g></svg>