<svg xmlns="http://www.w3.org/2000/svg" width="170" height="158" viewBox="0 0 170 158"><defs><style>.a{fill:#fff;}.b,.f{fill:none;}.b{stroke:#313131;stroke-dasharray:1 15;}.c{fill:#faf7f7;}.d{fill:#2f344f;stroke:#fff;stroke-width:0.4px;}.e{stroke:none;}</style></defs><g transform="translate(-875 -4144)"><g transform="translate(0 -287)"><path class="a" d="M-9443,228a85.642,85.642,0,0,1-17.131-1.727,84.592,84.592,0,0,1-15.955-4.953,85.046,85.046,0,0,1-14.438-7.837A85.691,85.691,0,0,1-9503.1,203.1a85.736,85.736,0,0,1-10.379-12.58,84.979,84.979,0,0,1-7.836-14.438,84.564,84.564,0,0,1-4.953-15.955A85.665,85.665,0,0,1-9528,143h170a85.637,85.637,0,0,1-1.727,17.13,84.558,84.558,0,0,1-4.953,15.955,85.084,85.084,0,0,1-7.837,14.438A85.742,85.742,0,0,1-9382.9,203.1a85.692,85.692,0,0,1-12.58,10.379,85.011,85.011,0,0,1-14.439,7.837,84.571,84.571,0,0,1-15.955,4.953A85.626,85.626,0,0,1-9443,228Z" transform="translate(10403 4361)"/><g class="b" transform="translate(886.5 4431)"><circle class="e" cx="73.5" cy="73.5" r="73.5"/><circle class="f" cx="73.5" cy="73.5" r="73"/></g></g><g transform="translate(0 -287)"><path class="c" d="M-9443,228a85.677,85.677,0,0,1-17.148-1.731,84.594,84.594,0,0,1-15.938-4.949,85.044,85.044,0,0,1-14.438-7.837A85.647,85.647,0,0,1-9503.1,203.1a85.7,85.7,0,0,1-10.379-12.58,84.977,84.977,0,0,1-7.836-14.438,84.528,84.528,0,0,1-4.953-15.955A85.646,85.646,0,0,1-9528,143h170a85.647,85.647,0,0,1-1.73,17.149,84.493,84.493,0,0,1-4.949,15.936,85,85,0,0,1-7.837,14.438A85.639,85.639,0,0,1-9382.9,203.1a85.683,85.683,0,0,1-12.581,10.379,85.027,85.027,0,0,1-14.438,7.837,84.581,84.581,0,0,1-15.955,4.953A85.606,85.606,0,0,1-9443,228Z" transform="translate(10403 4361)"/><g class="b" transform="translate(886.5 4431)"><circle class="e" cx="73.5" cy="73.5" r="73.5"/><circle class="f" cx="73.5" cy="73.5" r="73"/></g></g><g transform="translate(918.945 4181.336)"><path class="d" d="M-10447.485-4075.381a1.111,1.111,0,0,1-1.109-1.109,1.109,1.109,0,0,1,1.109-1.109h47.545a1.11,1.11,0,0,1,1.109,1.109,1.111,1.111,0,0,1-1.109,1.109Zm-22.189-6.341a1.111,1.111,0,0,1-1.111-1.109,1.111,1.111,0,0,1,1.111-1.109h16.57l-8.732-19.535-3.077.025h-.008a1.1,1.1,0,0,1-.778-.321,1.107,1.107,0,0,1-.328-.786v-3.65l-1.146.017a7.093,7.093,0,0,1-7.071-7.013,7.036,7.036,0,0,1,2.029-5.021,7.024,7.024,0,0,1,4.981-2.116l1.205-.017v-3.671a1.109,1.109,0,0,1,1.1-1.109l12.519-.1,45.791-14.646a1.111,1.111,0,0,1,.994.163,1.118,1.118,0,0,1,.457.9v15.746a9.044,9.044,0,0,1,7.923,8.967v1.585a9.046,9.046,0,0,1-7.923,8.967v14.833a1.107,1.107,0,0,1-.447.891,1.148,1.148,0,0,1-.665.213,1.092,1.092,0,0,1-.317-.047l-43.556-13.2,9.047,18.93h18.98a1.111,1.111,0,0,1,1.109,1.109,1.111,1.111,0,0,1-1.109,1.109Zm10.263-21.763,8.738,19.539,7.073-.06-9.337-19.539Zm52.024,11.259v-14.3c0-.025,0-.05,0-.076v-17.433c0-.025,0-.05,0-.075v-15.2l-43.744,13.99v19.836l37.4,11.335v-29.891a1.109,1.109,0,0,1,1.108-1.109,1.109,1.109,0,0,1,1.109,1.109v30.563Zm-56.425-32.7v19.255l4.122-.033v-10.405a1.109,1.109,0,0,1,1.109-1.109,1.11,1.11,0,0,1,1.109,1.109v10.388l1.46-.012,2.661-.024v-19.25Zm58.644,17.123a6.825,6.825,0,0,0,5.7-6.727v-1.583a6.832,6.832,0,0,0-5.7-6.725Zm-62.037-12.31a4.815,4.815,0,0,0-3.425,1.451,4.821,4.821,0,0,0-1.394,3.446,4.87,4.87,0,0,0,4.853,4.813h.042l1.1-.016v-9.71Zm40.8,13.511a4.283,4.283,0,0,1,4.279-4.277,4.282,4.282,0,0,1,4.277,4.277,4.285,4.285,0,0,1-4.277,4.28A4.285,4.285,0,0,1-10426.406-4106.6Zm2.219,0a2.064,2.064,0,0,0,2.061,2.061,2.064,2.064,0,0,0,2.059-2.061,2.063,2.063,0,0,0-2.059-2.058A2.063,2.063,0,0,0-10424.187-4106.6Zm-9.823-2.384-7.137-7.139-3.97,3.967a1.1,1.1,0,0,1-1.569,0,1.109,1.109,0,0,1,0-1.569l4.755-4.753a1.1,1.1,0,0,1,1.569,0l7.1,7.1,11.814-13.128h-2.262a1.112,1.112,0,0,1-1.112-1.109,1.112,1.112,0,0,1,1.112-1.109h4.681a1.108,1.108,0,0,1,.813.281,1.1,1.1,0,0,1,.339.575c0,.006,0,.013,0,.02a.189.189,0,0,1,0,.024,1.063,1.063,0,0,1,.021.21v4.755a1.11,1.11,0,0,1-1.109,1.109,1.11,1.11,0,0,1-1.109-1.109v-1.87l-12.331,13.7a1.119,1.119,0,0,1-.8.368.081.081,0,0,1-.026,0A1.116,1.116,0,0,1-10434.011-4108.989Zm-3.491-13.464a4.287,4.287,0,0,1,4.279-4.28,4.285,4.285,0,0,1,4.277,4.28,4.284,4.284,0,0,1-4.277,4.279A4.287,4.287,0,0,1-10437.5-4122.453Zm2.219,0a2.064,2.064,0,0,0,2.061,2.061,2.062,2.062,0,0,0,2.059-2.061,2.064,2.064,0,0,0-2.059-2.061A2.066,2.066,0,0,0-10435.283-4122.453Zm-32.809-13.154a1.113,1.113,0,0,1-1.109-1.109,1.111,1.111,0,0,1,1.109-1.109h17.434a1.111,1.111,0,0,1,1.111,1.109,1.113,1.113,0,0,1-1.111,1.109Zm0-4.755a1.111,1.111,0,0,1-1.109-1.109,1.111,1.111,0,0,1,1.109-1.109h22.191a1.111,1.111,0,0,1,1.109,1.109,1.112,1.112,0,0,1-1.109,1.109Zm0-4.755a1.111,1.111,0,0,1-1.109-1.109,1.111,1.111,0,0,1,1.109-1.109h26.944a1.109,1.109,0,0,1,1.108,1.109,1.109,1.109,0,0,1-1.108,1.109Z" transform="translate(10476.801 4153)"/></g></g></svg>