<svg xmlns="http://www.w3.org/2000/svg" width="169.987" height="158" viewBox="0 0 169.987 158"><defs><style>.a{fill:#faf7f7;}.b,.e{fill:none;}.b{stroke:#313131;stroke-dasharray:1 15;}.c{fill:#2f344f;stroke:#fff;stroke-width:0.6px;}.d{stroke:none;}</style></defs><g transform="translate(-475.007 -3637)"><path class="a" d="M-9435,227a85.636,85.636,0,0,1-17.012-1.7,84.542,84.542,0,0,1-15.855-4.886,85.052,85.052,0,0,1-14.366-7.734,85.652,85.652,0,0,1-12.54-10.247A85.713,85.713,0,0,1-9505.154,190a85.057,85.057,0,0,1-7.886-14.27,84.621,84.621,0,0,1-5.059-15.78A85.612,85.612,0,0,1-9519.993,143h169.987a85.584,85.584,0,0,1-1.895,16.954,84.623,84.623,0,0,1-5.059,15.78,85.094,85.094,0,0,1-7.887,14.27,85.657,85.657,0,0,1-10.381,12.426,85.6,85.6,0,0,1-12.54,10.247,84.979,84.979,0,0,1-14.366,7.734,84.542,84.542,0,0,1-15.855,4.886A85.636,85.636,0,0,1-9435,227Z" transform="translate(9995 3568)"/><g class="b" transform="translate(487 3637)"><circle class="d" cx="73.5" cy="73.5" r="73.5"/><circle class="e" cx="73.5" cy="73.5" r="73"/></g><g transform="translate(515.641 3667)"><path class="c" d="M27.959,85.392a16.615,16.615,0,0,0,14.735-8.98c.618.027,1.23.043,1.825.043.3,0,.585,0,.9-.007s.622-.017.926-.037c.13,0,.261-.007.421-.013a.815.815,0,0,0,.09,0l.906-.063c.237-.013.458-.033.742-.06,8.078-.759,13.4-3.589,13.689-7.235a19.135,19.135,0,0,0,.037-6.774,18.96,18.96,0,0,0,0-6.52,19.105,19.105,0,0,0,0-6.507,21.007,21.007,0,0,0,.274-3.222,21.417,21.417,0,0,0-.281-3.255,19.006,19.006,0,0,0-.017-6.6c-.074-4.983-9.15-7.67-17.7-7.67-8.573,0-17.679,2.7-17.7,7.713a21.352,21.352,0,0,0-.287,3.3,20.983,20.983,0,0,0,.281,3.255,20.982,20.982,0,0,0-.281,3.255,21.582,21.582,0,0,0,.277,3.242,20.886,20.886,0,0,0-.277,3.011,16.6,16.6,0,0,0,1.43,33.132ZM59.668,68.565a1.407,1.407,0,0,0-.013.167c0,.013,0,.023,0,.033-.053,1.912-4.331,4.284-11.44,4.953-.2.02-.4.037-.622.05l-.882.063-.1,0c-.13.007-.257.007-.394.013-.277.02-.561.027-.876.033-.264.007-.521.007-.785.007s-.525-.02-.785-.023a16.456,16.456,0,0,0,.742-3.91h.013c.665,0,1.323-.017,1.972-.043a1.283,1.283,0,1,0-.117-2.563c-.618.027-1.25.037-1.878.037a16.447,16.447,0,0,0-.832-3.95c.284.007.565.013.859.013,6.092,0,11.617-1.253,14.805-3.352.023-.013.047-.03.07-.043l.043-.03c.18-.12.334-.244.491-.364a20.228,20.228,0,0,1-.251,2.319,1.267,1.267,0,0,0-.03.271c0,.007,0,.01,0,.017-.027.919-1.056,1.738-1.668,2.146a.394.394,0,0,0-.06.043s0,0-.007,0a19.747,19.747,0,0,1-7.413,2.476,1.283,1.283,0,0,0,.2,2.55,1.437,1.437,0,0,0,.2-.017,21.981,21.981,0,0,0,8.405-2.857.909.909,0,0,0,.114-.08c.187-.124.344-.251.508-.378a21.779,21.779,0,0,1-.274,2.413ZM44.515,31.051c9.348,0,15.1,2.988,15.133,5.143,0,.017,0,.033,0,.053-.053,2.152-5.8,5.13-15.13,5.13-9.3,0-15.039-2.961-15.126-5.11v-.094c.074-2.156,5.812-5.123,15.126-5.123ZM31,44.87c-.588-.4-1.571-1.193-1.614-2.085v-.033c0-.047-.007-.09-.01-.137a.953.953,0,0,0-.01-.1,19.53,19.53,0,0,1-.261-2.346c3.248,2.473,9.455,3.773,15.4,3.773s12.165-1.3,15.41-3.78a19.87,19.87,0,0,1-.261,2.359.221.221,0,0,0,0,.047c0,.03-.007.053-.01.084s-.007.067-.007.1c-.017.678-.6,1.44-1.668,2.146-2.734,1.838-7.894,2.978-13.461,2.978a32.942,32.942,0,0,1-10.447-1.544,1.284,1.284,0,0,0-.842,2.426,35.594,35.594,0,0,0,11.289,1.688c6.143,0,11.711-1.277,14.888-3.412.19-.127.354-.257.521-.384a19.493,19.493,0,0,1-.244,2.279c-.007.033-.013.067-.017.1v.013a1.105,1.105,0,0,0-.017.184c0,.007,0,.01,0,.017s0,.01,0,.013c-.01.672-.6,1.44-1.671,2.156-.2.134-.414.264-.645.391a1.283,1.283,0,1,0,1.253,2.239c.277-.154.538-.314.785-.481.03-.02.06-.04.087-.06.17-.117.321-.234.471-.348a19.991,19.991,0,0,1-.251,2.313v0a1.2,1.2,0,0,0-.03.271.02.02,0,0,0,0,.013c-.013.665-.578,1.41-1.6,2.109l-.08.05c-2.727,1.831-7.884,2.971-13.455,2.971-.7,0-1.36-.023-2-.053a16.757,16.757,0,0,0-3.312-4.211,41.74,41.74,0,0,0,5.31.334,36.784,36.784,0,0,0,10.21-1.34A1.284,1.284,0,0,0,54,53.151a34.153,34.153,0,0,1-9.485,1.237c-5.554,0-10.712-1.136-13.455-2.968,0,0-.007,0-.01-.007a3.34,3.34,0,0,1-1.661-2.146c0-.007,0-.013,0-.02v-.03c0-.043-.01-.084-.013-.127,0-.023,0-.043-.007-.067a.145.145,0,0,1,0-.017.567.567,0,0,0-.013-.074,19.789,19.789,0,0,1-.244-2.283c.15.114.287.227.455.341A1.282,1.282,0,0,0,31,44.87Zm-3.045,9.886A14.035,14.035,0,1,1,13.926,68.788,14.052,14.052,0,0,1,27.959,54.756Z" transform="translate(0 -3.392)"/><path class="c" d="M11.586,43.31a1.284,1.284,0,0,0,1.283,1.283h8.873a1.283,1.283,0,0,0,0-2.567H12.869A1.284,1.284,0,0,0,11.586,43.31Z" transform="translate(-0.033 -5.348)"/><path class="c" d="M86.714,43.31a1.284,1.284,0,0,0-1.283-1.283H76.557a1.283,1.283,0,0,0,0,2.567H85.43A1.284,1.284,0,0,0,86.714,43.31Z" transform="translate(-9.232 -5.348)"/><path class="c" d="M29.991,24.688A1.282,1.282,0,0,0,30.9,22.5l-6.273-6.273a1.283,1.283,0,1,0-1.815,1.815l6.273,6.273a1.283,1.283,0,0,0,.906.374Z" transform="translate(-1.6 -1.567)"/><path class="c" d="M51.18,15.156V6.283a1.283,1.283,0,1,0-2.567,0v8.873a1.283,1.283,0,0,0,2.567,0Z" transform="translate(-5.381)"/><path class="c" d="M69.653,24.309l6.273-6.273a1.283,1.283,0,1,0-1.815-1.815l-6.273,6.273a1.282,1.282,0,0,0,.909,2.189A1.261,1.261,0,0,0,69.653,24.309Z" transform="translate(-8.104 -1.567)"/><path class="c" d="M19.434,75.708a1.284,1.284,0,0,0,1.283,1.283H21.79a11.528,11.528,0,0,0,1.4,3.416,7.18,7.18,0,0,0,6,3.71,7.189,7.189,0,0,0,6-3.706,1.283,1.283,0,1,0-2.176-1.36,4.7,4.7,0,0,1-3.827,2.5,4.691,4.691,0,0,1-3.827-2.5,8.867,8.867,0,0,1-.909-2.055h2.557a1.283,1.283,0,1,0,0-2.567h-3c-.01-.187-.037-.371-.037-.561,0-.057,0-.114.007-.224q.01-.371.04-.732h3.111a1.283,1.283,0,1,0,0-2.567h-2.56a8.308,8.308,0,0,1,1.076-2.085A4.478,4.478,0,0,1,29.2,66.18a4.484,4.484,0,0,1,3.546,2.079,1.284,1.284,0,0,0,2.075-1.514A6.967,6.967,0,0,0,29.2,63.613a6.967,6.967,0,0,0-5.618,3.132,11.173,11.173,0,0,0-1.691,3.6H20.777a1.283,1.283,0,1,0,0,2.567h.678c-.013.211-.03.418-.033.628-.007.11-.007.217-.007.328,0,.187.01.374.02.561H20.72a1.284,1.284,0,0,0-1.287,1.283Z" transform="translate(-1.166 -8.466)"/></g></g></svg>