<svg xmlns="http://www.w3.org/2000/svg" width="169.987" height="158" viewBox="0 0 169.987 158"><defs><style>.a{fill:#faf7f7;}.b,.e{fill:none;}.b{stroke:#313131;stroke-dasharray:1 15;}.c,.f{fill:#2f344f;}.d,.f{stroke:none;}</style></defs><g transform="translate(-875.007 -3637)"><path class="a" d="M-9443,227a85.621,85.621,0,0,1-17.012-1.7,84.586,84.586,0,0,1-15.856-4.886,85.052,85.052,0,0,1-14.366-7.734,85.657,85.657,0,0,1-12.54-10.247A85.635,85.635,0,0,1-9513.154,190a85.1,85.1,0,0,1-7.887-14.27,84.618,84.618,0,0,1-5.058-15.78A85.612,85.612,0,0,1-9527.993,143h169.987a85.584,85.584,0,0,1-1.895,16.954,84.623,84.623,0,0,1-5.059,15.78,85.094,85.094,0,0,1-7.887,14.27,85.657,85.657,0,0,1-10.381,12.426,85.6,85.6,0,0,1-12.54,10.247,84.979,84.979,0,0,1-14.366,7.734,84.542,84.542,0,0,1-15.855,4.886A85.636,85.636,0,0,1-9443,227Z" transform="translate(10403 3568)"/><g class="b" transform="translate(886.5 3637)"><circle class="d" cx="73.5" cy="73.5" r="73.5"/><circle class="e" cx="73.5" cy="73.5" r="73"/></g><g class="c" transform="translate(920.033 3670.984)"><path class="d" d="M 72.64714050292969 78.06594085693359 L 7.286958694458008 78.06594085693359 C 6.191588878631592 78.06594085693359 5.154688835144043 77.63227844238281 4.367258548736572 76.8448486328125 C 3.579848527908325 76.05741882324219 3.146198749542236 75.02053070068359 3.146198749542236 73.92517852783203 L 3.146198749542236 69.99704742431641 L 3.146198749542236 69.94704437255859 L 3.196198701858521 69.94704437255859 L 35.49251937866211 69.94704437255859 L 35.54251861572266 69.94704437255859 L 35.54251861572266 69.99704742431641 L 35.54251861572266 70.76119995117188 C 35.54251861572266 72.09481811523438 36.66919708251953 73.22149658203125 38.00283050537109 73.22149658203125 L 41.93095779418945 73.22149658203125 C 43.26458740234375 73.22149658203125 44.39126968383789 72.09481811523438 44.39126968383789 70.76119995117188 L 44.39126968383789 69.99704742431641 L 44.39126968383789 69.94704437255859 L 44.44126892089844 69.94704437255859 L 76.73789978027344 69.94704437255859 L 76.78789520263672 69.94704437255859 L 76.78789520263672 69.99704742431641 L 76.78789520263672 73.92517852783203 C 76.78789520263672 75.02054595947266 76.35424041748047 76.05744934082031 75.56681060791016 76.84487915039062 C 74.77938842773438 77.63228607177734 73.74248504638672 78.06594085693359 72.64714050292969 78.06594085693359 Z M 4.826948642730713 71.57532501220703 L 4.826948642730713 73.86994934082031 C 4.826948642730713 75.20357513427734 5.953628540039062 76.33025360107422 7.287258625030518 76.33025360107422 L 72.6474609375 76.33025360107422 C 73.9810791015625 76.33025360107422 75.10775756835938 75.20357513427734 75.10775756835938 73.86994934082031 L 75.10746765136719 71.57532501220703 L 46.01043701171875 71.57532501220703 C 45.59484100341797 73.50543212890625 43.88582611083984 74.90198516845703 41.93126678466797 74.90198516845703 L 38.00313949584961 74.90198516845703 C 36.04032135009766 74.90198516845703 34.33129501342773 73.50536346435547 33.92378997802734 71.57532501220703 L 4.826948642730713 71.57532501220703 Z M 69.47756958007812 67.37437438964844 L 69.42756652832031 67.37437438964844 L 10.34295845031738 67.37437438964844 L 10.29295825958252 67.37437438964844 L 10.29295825958252 67.32437896728516 L 10.28988838195801 31.80855751037598 C 10.28988838195801 29.74047088623047 11.52078628540039 27.85971260070801 13.42595481872559 27.01636505126953 C 13.53428268432617 26.95449447631836 13.65309715270996 26.92311668395996 13.77912902832031 26.92311668395996 C 14.09580993652344 26.92311668395996 14.40439987182617 27.12694931030273 14.53066921234131 27.41916465759277 C 14.63343811035156 27.59932136535645 14.65194702148438 27.81258010864258 14.58271884918213 28.0200080871582 C 14.50734901428223 28.24579811096191 14.3362283706665 28.43450736999512 14.12497901916504 28.52480697631836 C 12.85135841369629 29.05698776245117 12.02863883972168 30.32418823242188 12.02863883972168 31.75331687927246 L 12.02863883972168 65.63530731201172 L 67.84952545166016 65.63836669921875 L 67.84952545166016 31.69746780395508 C 67.84952545166016 30.76090812683105 67.47708892822266 29.8726863861084 66.80082702636719 29.19642639160156 C 66.12455749511719 28.52016639709473 65.23633575439453 28.14772796630859 64.29978179931641 28.14772796630859 C 63.83563995361328 28.14772796630859 63.48563766479492 27.7977180480957 63.48563766479492 27.33357810974121 C 63.48563766479492 26.86943817138672 63.83563995361328 26.5194263458252 64.29978179931641 26.5194263458252 C 67.18544769287109 26.5194263458252 69.53311920166016 28.86708641052246 69.53311920166016 31.75275802612305 L 69.53311920166016 31.80203819274902 L 69.48384857177734 31.80274772644043 L 69.47756958007812 31.8028392791748 L 69.47756958007812 67.32437896728516 L 69.47756958007812 67.37437438964844 Z M 25.61415863037109 64.42789459228516 C 25.31941795349121 64.42789459228516 25.03132820129395 64.25156402587891 24.8622989654541 63.96770858764648 C 24.74992942810059 63.77147674560547 24.72699928283691 63.53546905517578 24.79894828796387 63.3194580078125 C 24.86850929260254 63.11063766479492 25.01971817016602 62.94279861450195 25.21379852294922 62.85896682739258 L 46.379150390625 51.78480911254883 C 46.99996948242188 51.47292709350586 47.2252082824707 50.75099563598633 46.9038200378418 50.10517883300781 C 46.69382858276367 49.68715667724609 46.28997802734375 49.43749618530273 45.8236083984375 49.43749618530273 C 45.62093734741211 49.43749618530273 45.413818359375 49.48725891113281 45.22464752197266 49.58139801025391 C 45.10803985595703 49.64826583862305 44.97226715087891 49.6843376159668 44.83458709716797 49.6843376159668 C 44.52071762084961 49.6843376159668 44.24069213867188 49.50638198852539 44.12035369873047 49.2307243347168 C 44.00959777832031 49.03570556640625 43.98714447021484 48.80073547363281 44.05879974365234 48.58559799194336 C 44.12834930419922 48.37677764892578 44.27956008911133 48.20893859863281 44.47364044189453 48.12510681152344 L 45.23532867431641 47.7457160949707 C 45.85525894165039 47.43429565429688 46.08049774169922 46.71236801147461 45.75910949707031 46.06653594970703 C 45.54911804199219 45.64852905273438 45.14527893066406 45.39887619018555 44.67890930175781 45.39887619018555 C 44.47623825073242 45.39887619018555 44.26910781860352 45.44863891601562 44.07993698120117 45.54277801513672 C 43.96334838867188 45.60962677001953 43.82758712768555 45.64569854736328 43.68988800048828 45.64570617675781 C 43.3759880065918 45.64573669433594 43.09593963623047 45.46776580810547 42.97560501098633 45.1920280456543 C 42.86488342285156 44.99702072143555 42.84244155883789 44.76207733154297 42.91408920288086 44.54697799682617 C 42.98365020751953 44.3381462097168 43.13484954833984 44.17030715942383 43.32892990112305 44.08647918701172 L 44.09061813354492 43.70707702636719 C 44.7105598449707 43.39566802978516 44.93579864501953 42.67373657226562 44.61441040039062 42.02790832519531 C 44.4044189453125 41.60989761352539 44.00056838989258 41.36023712158203 43.53419876098633 41.36023712158203 C 43.33152008056641 41.36023712158203 43.12439727783203 41.40999603271484 42.93523025512695 41.5041389465332 C 42.81861877441406 41.57100677490234 42.6828498840332 41.6070671081543 42.54516983032227 41.6070671081543 C 42.23029708862305 41.60707855224609 41.94949722290039 41.42798614501953 41.82978820800781 41.15083694458008 L 41.82796859741211 41.14736557006836 C 41.77252960205078 41.03656768798828 41.7152099609375 40.9219856262207 41.7152099609375 40.75046539306641 C 41.7152099609375 40.45574569702148 41.89154815673828 40.16764831542969 42.17540740966797 39.99860763549805 C 42.79862976074219 39.68538665771484 43.02386856079102 38.96346664428711 42.70248031616211 38.3176383972168 C 42.49248886108398 37.89961624145508 42.08864974975586 37.64996719360352 41.62228012084961 37.64996719360352 C 41.41960906982422 37.64996719360352 41.21247863769531 37.69972610473633 41.02330780029297 37.79386901855469 L 38.24094772338867 39.2663459777832 L 34.0948600769043 41.44832611083984 C 33.80218887329102 41.59330749511719 33.63344955444336 41.83931732177734 33.57275009155273 42.02137756347656 C 33.45867919921875 42.30365753173828 33.17736053466797 42.49134826660156 32.87164688110352 42.49134826660156 L 32.8164176940918 42.49134826660156 L 32.70592880249023 42.49134826660156 L 32.65068817138672 42.49134826660156 C 32.6107177734375 42.49134826660156 32.57550811767578 42.47348785400391 32.54443740844727 42.45772552490234 C 32.52347946166992 42.44709777832031 32.50180053710938 42.43610763549805 32.488037109375 42.43610763549805 L 32.43280029296875 42.43610763549805 C 32.36739349365234 42.43610763549805 32.30481338500977 42.38706207275391 32.28170394897461 42.32562637329102 L 32.26708984375 42.32562637329102 L 32.24637985229492 42.32562637329102 L 32.23169708251953 42.31094741821289 C 32.17511367797852 42.25436019897461 32.11675643920898 42.19600677490234 32.10779571533203 42.13027954101562 L 31.53863525390625 41.30554962158203 L 31.03122901916504 41.55925750732422 C 28.51255798339844 42.84574890136719 27.23780822753906 45.80412673950195 28.00053787231445 48.59343719482422 C 28.11058807373047 48.97248840332031 27.96452903747559 49.33051681518555 27.5995979309082 49.57496643066406 L 27.59737777709961 49.57645797729492 L 27.59501838684082 49.57769775390625 L 14.61096858978271 56.39669799804688 C 14.49338817596436 56.46405792236328 14.35762882232666 56.50012588500977 14.21994876861572 56.50012588500977 C 13.90603923797607 56.50012588500977 13.62598991394043 56.3221435546875 13.50566673278809 56.04643630981445 C 13.39495468139648 55.85143280029297 13.3725118637085 55.61647796630859 13.44415855407715 55.4013786315918 C 13.5137186050415 55.19256591796875 13.66491889953613 55.02472686767578 13.85899829864502 54.94089889526367 L 26.31610679626465 48.41371917724609 C 25.71979141235352 45.07844543457031 27.3672924041748 41.6657829284668 30.33191871643066 40.10443878173828 L 30.71846961975098 39.91115188598633 L 29.95136642456055 38.7360725402832 L 29.07456588745117 39.05277252197266 C 28.51578712463379 39.35708618164062 27.93757057189941 39.49281692504883 27.20037841796875 39.49281692504883 C 26.79958915710449 39.49281692504883 26.35729789733887 39.43284606933594 25.98690795898438 39.32828903198242 C 25.07374572753906 39.05918121337891 24.29888153076172 38.46567153930664 23.79957008361816 37.654296875 C 23.29696083068848 37.89686965942383 22.71615409851074 38.01980590820312 22.07235908508301 38.01980590820312 C 21.67155838012695 38.01980590820312 21.2292594909668 37.9598388671875 20.85887908935547 37.85526657104492 C 19.83438873291016 37.53097915649414 18.99138832092285 36.82483673095703 18.48366928100586 35.86649703979492 L 16.29848861694336 31.72115707397461 C 15.31405258178711 29.80765151977539 16.00214195251465 27.44931793212891 17.86318016052246 26.33118057250977 C 17.47671318054199 25.40375900268555 17.4455394744873 24.37310409545898 17.77619934082031 23.42388725280762 C 18.11335945129395 22.45598793029785 18.79809951782227 21.65897750854492 19.70428848266602 21.17966651916504 L 28.81625938415527 16.43198776245117 C 29.38487815856934 16.13318634033203 30.02485847473145 15.97520732879639 30.66684913635254 15.97520732879639 C 31.29900360107422 15.97520732879639 31.92923545837402 16.12839698791504 32.49142456054688 16.41844367980957 C 39.22802734375 11.9978199005127 42.93058395385742 7.898063182830811 44.54823303222656 5.830748081207275 L 44.23406982421875 5.205367088317871 C 43.56258773803711 3.915967226028442 44.06216812133789 2.319067239761353 45.34805679321289 1.646287322044373 L 45.99659729003906 1.266877293586731 C 46.35762786865234 1.06974732875824 46.76716995239258 0.9659372568130493 47.18222045898438 0.9659372568130493 C 47.459228515625 0.9659372568130493 47.73493957519531 1.011037230491638 48.001708984375 1.099967241287231 C 48.67832946777344 1.325507283210754 49.23104858398438 1.779617309570312 49.55806732177734 2.378627300262451 L 53.74116897583008 10.41752529144287 C 54.08042144775391 10.3258581161499 54.43064117431641 10.27939701080322 54.78277969360352 10.27939701080322 C 56.2588005065918 10.27939701080322 57.60236740112305 11.07729721069336 58.28916931152344 12.36172771453857 C 59.15904235839844 13.99419212341309 58.75313568115234 16.02113914489746 57.32617950439453 17.19803047180176 L 61.50869750976562 25.23581695556641 C 61.83737945556641 25.83785820007324 61.89795684814453 26.56821823120117 61.6744270324707 27.23876762390137 C 61.44889831542969 27.91536712646484 60.99478912353516 28.46809768676758 60.39575958251953 28.79513740539551 L 59.74057006835938 29.12428665161133 C 59.31245803833008 29.36949729919434 58.88227844238281 29.40273666381836 58.51824951171875 29.40273666381836 C 58.29308700561523 29.40273666381836 58.03911972045898 29.36609649658203 57.7418098449707 29.29072761535645 C 57.06168746948242 29.06416702270508 56.50896835327148 28.61005783081055 56.18193817138672 28.01102638244629 L 55.86753845214844 27.38521575927734 C 52.63937759399414 27.5738353729248 47.32608032226562 28.39775848388672 40.28564071655273 31.24174499511719 C 40.10907745361328 32.53163909912109 39.32686996459961 33.65540313720703 38.1886100769043 34.25191879272461 L 36.65343856811523 35.04631423950195 L 38.12738037109375 37.36083602905273 L 40.21315765380859 36.23820877075195 C 40.63422012329102 36.02765655517578 41.08186721801758 35.92124557495117 41.54500961303711 35.92124557495117 C 42.62238693237305 35.92124557495117 43.62186050415039 36.50996780395508 44.15337753295898 37.45765686035156 C 44.50404357910156 38.15562057495117 44.58731460571289 38.9818229675293 44.37764739990234 39.6714973449707 L 44.37764739990234 39.68257522583008 C 45.12108993530273 39.92107391357422 45.75394058227539 40.44083786010742 46.11782836914062 41.11329650878906 C 46.57893371582031 41.9836311340332 46.54545974731445 43.06634902954102 46.03347396850586 43.95230102539062 C 46.6224365234375 44.25714874267578 47.01423645019531 44.65705108642578 47.26410675048828 45.20726776123047 C 47.74930572509766 46.1229133605957 47.71648406982422 47.20555877685547 47.18044281005859 48.04430389404297 C 47.76811599731445 48.34899139404297 48.15928268432617 48.74859619140625 48.40881729125977 49.298095703125 C 49.12064743041992 50.72170639038086 48.58469009399414 52.45185852050781 47.18785858154297 53.23527908325195 L 26.01787948608398 64.31172943115234 L 26.01109886169434 64.31512451171875 C 25.90028953552246 64.37056732177734 25.78569793701172 64.42789459228516 25.61415863037109 64.42789459228516 Z M 31.36296272277832 37.88186264038086 L 32.88920211791992 40.24814987182617 C 32.95681381225586 40.20256042480469 33.02486038208008 40.15740203857422 33.0929069519043 40.11225891113281 C 33.17478942871094 40.05791854858398 33.25667953491211 40.00357818603516 33.33781051635742 39.94847869873047 L 33.34002685546875 39.94696807861328 L 33.34238815307617 39.94570541381836 L 36.67658615112305 38.16973114013672 L 35.20209503173828 35.85433578491211 L 31.36296272277832 37.88186264038086 Z M 19.48311424255371 25.85830116271973 L 19.49929809570312 25.89036750793457 L 19.71718788146973 26.32614707946777 L 22.28232955932617 31.23551750183105 L 25.06582832336426 36.58152770996094 C 25.46082878112793 37.36946868896484 26.26650810241699 37.85851669311523 27.16881942749023 37.85851669311523 C 27.54871940612793 37.85851669311523 27.9307689666748 37.76813888549805 28.27365875244141 37.59714889526367 L 34.1651496887207 34.54094696044922 L 37.38417816162109 32.85015869140625 C 38.18788909912109 32.42272567749023 38.6678581237793 31.62355804443359 38.6678581237793 30.7125072479248 C 38.6678581237793 30.42884635925293 38.60837936401367 30.10992813110352 38.50874710083008 29.85940742492676 C 38.48133850097656 29.80499649047852 38.46673965454102 29.76200675964355 38.45261764526367 29.72043800354004 C 38.43898010253906 29.68027687072754 38.42609786987305 29.64234733581543 38.40000915527344 29.59015655517578 L 32.77523803710938 18.89948654174805 C 32.60756683349609 18.56100654602051 32.33530044555664 18.25042724609375 32.02768707275391 18.04629707336426 C 31.58188819885254 17.76690673828125 31.10079956054688 17.61885643005371 30.63752937316895 17.61885643005371 C 30.19993782043457 17.61885643005371 29.8139591217041 17.76455688476562 29.56722831726074 17.88678741455078 L 20.4564380645752 22.63386726379395 C 19.91549873352051 22.94136810302734 19.51736831665039 23.44796752929688 19.33700942993164 24.05945777893066 C 19.15986442565918 24.66005516052246 19.21188735961914 25.29736137390137 19.48311424255371 25.85830116271973 Z M 17.79455375671387 30.89043998718262 L 17.80498886108398 30.91030693054199 L 19.98690795898438 35.11160659790039 C 20.39765930175781 35.89325714111328 21.23367881774902 36.39849853515625 22.11665916442871 36.3985481262207 C 22.11669921875 36.3985481262207 22.11675643920898 36.3985481262207 22.11679840087891 36.3985481262207 C 22.43881034851074 36.3985481262207 22.74837493896484 36.33303451538086 23.03774642944336 36.20375442504883 L 20.82805824279785 31.99384689331055 L 18.61659622192383 27.78635406494141 C 17.57398796081543 28.49307060241699 17.22964859008789 29.78668403625488 17.79455375671387 30.89043998718262 Z M 33.96012115478516 17.65347290039062 L 34.05799865722656 17.75136756896973 C 34.14690017700195 17.84025764465332 34.20052719116211 17.95985794067383 34.24361801147461 18.05595779418945 C 34.25787734985352 18.0877571105957 34.27132797241211 18.11781692504883 34.28498840332031 18.14438819885254 L 39.90382766723633 28.83558654785156 C 39.93408966064453 28.89609718322754 39.96361923217773 28.96974754333496 39.99217987060547 29.04097747802734 C 40.01834869384766 29.10623741149902 40.04306793212891 29.16788673400879 40.06718826293945 29.21753692626953 L 40.07220840454102 29.2278881072998 L 40.07220840454102 29.23938751220703 C 40.07220840454102 29.26502799987793 40.09963989257812 29.30115699768066 40.11293029785156 29.31463813781738 L 40.1273193359375 29.32923698425293 L 40.12744903564453 29.34986686706543 C 40.12744903564453 29.36290740966797 40.13533020019531 29.38176727294922 40.14444732666016 29.40359687805176 C 40.15481185913086 29.42840576171875 40.16763305664062 29.4591007232666 40.17548751831055 29.49710655212402 C 47.30640411376953 26.68650245666504 52.49570846557617 25.9470386505127 55.00119400024414 25.75799369812012 L 45.4139518737793 7.454654216766357 C 43.79745483398438 9.42948055267334 40.18654251098633 13.30639839172363 33.8791618347168 17.52125358581543 C 33.91830825805664 17.56297302246094 33.95169830322266 17.60634803771973 33.96012115478516 17.65347290039062 Z M 47.24002838134766 2.662057399749756 C 47.09964752197266 2.662057399749756 46.95038986206055 2.700117349624634 46.80838775634766 2.772117376327515 L 46.15456008911133 3.10056734085083 C 45.89597702026367 3.228407382965088 45.70706939697266 3.437667369842529 45.62234878540039 3.689937353134155 C 45.5401496887207 3.934687376022339 45.56268692016602 4.205097198486328 45.68581771850586 4.451347351074219 L 46.23204803466797 5.543897151947021 L 57.03400802612305 26.22079658508301 L 57.58066940307617 27.31407737731934 C 57.76120758056641 27.63852691650391 58.09924697875977 27.84130668640137 58.46183776855469 27.84133720397949 C 58.46187591552734 27.84133720397949 58.4619255065918 27.84133720397949 58.46196365356445 27.84133720397949 C 58.62239456176758 27.84133720397949 58.78032684326172 27.80302810668945 58.9314079284668 27.72749710083008 L 59.58499908447266 27.39916801452637 C 59.77334976196289 27.30366706848145 59.99440002441406 27.10456657409668 60.0494499206543 26.83244705200195 C 60.11001968383789 26.53295707702637 60.09291839599609 26.28679656982422 59.99861907958984 26.10081672668457 L 55.46928787231445 17.4256763458252 L 54.05141830444336 14.69734764099121 L 48.10698699951172 3.186237335205078 C 48.01123046875 2.997377395629883 47.81212997436523 2.776317358016968 47.54001998901367 2.721287250518799 L 47.53548049926758 2.720367193222046 L 47.53117752075195 2.718627214431763 C 47.43837738037109 2.681097269058228 47.34041976928711 2.662057399749756 47.24002838134766 2.662057399749756 Z M 54.55808258056641 11.9339656829834 L 56.50959014892578 15.6768627166748 C 57.12630844116211 14.9655647277832 57.2349853515625 13.96783924102783 56.78285980224609 13.11455726623535 C 56.40768814086914 12.36947727203369 55.65598678588867 11.92520713806152 54.77158737182617 11.92520713806152 C 54.70100021362305 11.92520713806152 54.62945938110352 11.92814826965332 54.55808258056641 11.9339656829834 Z M 65.33358764648438 21.32958793640137 C 65.21515655517578 21.32958793640137 65.0458984375 21.27144813537598 64.93068695068359 21.21382713317871 L 64.92781829833984 21.21238708496094 L 64.92514801025391 21.21059799194336 C 64.59320831298828 20.98727798461914 64.39801788330078 20.46834754943848 64.63653564453125 20.05177688598633 C 66.56215667724609 16.58422660827637 66.62279510498047 12.46159744262695 64.79841613769531 9.024297714233398 C 62.96025466918945 5.560388088226318 59.53079605102539 3.265886545181274 55.62410354614258 2.885741710662842 L 55.62355041503906 2.885797262191772 L 55.6177978515625 2.885177373886108 C 55.37392807006836 2.855967283248901 55.14198684692383 2.72297739982605 54.99736022949219 2.529417276382446 C 54.88675689697266 2.381397247314453 54.83993911743164 2.216837167739868 54.86554718017578 2.06607723236084 C 54.91698837280273 1.63578724861145 55.27186965942383 1.30947732925415 55.69067764282227 1.30947732925415 C 55.7244987487793 1.30947732925415 55.75882720947266 1.311647295951843 55.79269790649414 1.315947294235229 C 60.28874969482422 1.701647281646729 64.21923828125 4.322737216949463 66.30474090576172 8.327136993408203 C 68.40019226074219 12.2948169708252 68.31845092773438 17.00394821166992 66.08594512939453 20.92379760742188 L 66.08441925048828 20.92647743225098 L 66.08256530761719 20.92895698547363 C 65.90088653564453 21.17232704162598 65.60689544677734 21.32958793640137 65.33358764648438 21.32958793640137 Z M 63.09675979614258 16.96575736999512 L 62.93410873413086 16.96575736999512 L 62.93077850341797 16.96575736999512 L 62.9274787902832 16.96531677246094 C 62.69756698608398 16.93454742431641 62.50460052490234 16.81950759887695 62.38409805297852 16.64138793945312 C 62.26581954956055 16.46652793884277 62.23140716552734 16.24898719787598 62.28720855712891 16.02882766723633 C 62.67333984375 14.2005672454834 62.42315673828125 12.29418754577637 61.58229827880859 10.66282749176025 C 60.70441818237305 9.015316963195801 59.27914047241211 7.725397109985352 57.56932830810547 7.031277179718018 C 57.14325714111328 6.849177360534668 56.93994903564453 6.365547180175781 57.10564041137695 5.929907321929932 C 57.24188995361328 5.611007213592529 57.55030822753906 5.406157493591309 57.89212036132812 5.406157493591309 C 57.99835968017578 5.406157493591309 58.10443878173828 5.426017284393311 58.2073974609375 5.465177059173584 C 60.29129028320312 6.340647220611572 62.00468826293945 7.898547172546387 63.0335693359375 9.852517127990723 C 64.08837127685547 11.84979724884033 64.39952850341797 14.14854717254639 63.90968704223633 16.32524681091309 C 63.85445022583008 16.70682716369629 63.5274772644043 16.96575736999512 63.09675979614258 16.96575736999512 Z"/><path class="f" d="M 47.1822395324707 1.015945434570312 C 46.78023910522461 1.015953063964844 46.38176345825195 1.113548278808594 46.0218391418457 1.310035705566406 L 45.37123870849609 1.690574645996094 C 44.1161003112793 2.347274780273438 43.62508773803711 3.927734375 44.27874755859375 5.182914733886719 L 44.60712051391602 5.836593627929688 C 42.86066818237305 8.074050903320312 39.15070724487305 12.11240386962891 32.49432754516602 16.47632598876953 C 31.92200469970703 16.17558288574219 31.29442596435547 16.02521133422852 30.66684722900391 16.02521133422852 C 30.03926849365234 16.02521133422852 29.41168975830078 16.17558288574219 28.83935928344727 16.47632598876953 L 19.72766876220703 21.2238655090332 C 17.87098693847656 22.20589828491211 17.10681915283203 24.44305801391602 17.92621994018555 26.35188674926758 C 16.069580078125 27.44131851196289 15.36067962646484 29.78900909423828 16.34270858764648 31.69783782958984 L 18.52783966064453 35.84308624267578 C 19.01885986328125 36.7698860168457 19.83520889282227 37.47878646850586 20.87246704101562 37.80714797973633 C 21.25294876098633 37.91455841064453 21.69180679321289 37.96980667114258 22.07234954833984 37.96980667114258 C 22.67390823364258 37.96980667114258 23.27230834960938 37.86239624023438 23.81856918334961 37.58925628662109 C 24.30957794189453 38.40858840942383 25.07368850708008 39.00703811645508 26.00048828125 39.28016662597656 C 26.3809700012207 39.38757705688477 26.81982803344727 39.44281768798828 27.20037841796875 39.44281768798828 C 27.85409927368164 39.44281768798828 28.45248794555664 39.33539581298828 29.05398941040039 39.00703811645508 L 29.97159957885742 38.67559814453125 L 30.79100036621094 39.9307861328125 L 30.35521697998047 40.14867782592773 C 27.35388946533203 41.7293586730957 25.77037048339844 45.16646575927734 26.37186050415039 48.44095611572266 L 13.87882995605469 54.98679733276367 C 13.49521636962891 55.15248870849609 13.33256530761719 55.64351654052734 13.55046081542969 56.02405548095703 C 13.66546630859375 56.29031753540039 13.93719482421875 56.45012664794922 14.21994018554688 56.45012664794922 C 14.34455108642578 56.45012664794922 14.47130584716797 56.41908264160156 14.58771514892578 56.35242462158203 L 27.57176971435547 49.53342819213867 C 27.89706802368164 49.31552886962891 28.06278991699219 48.98716735839844 27.95230865478516 48.60662841796875 C 27.19118881225586 45.82322692871094 28.44332885742188 42.82496643066406 31.00886917114258 41.5145378112793 L 31.55511856079102 41.24140548706055 L 32.15660858154297 42.11298751831055 C 32.15660858154297 42.16515731811523 32.21184921264648 42.22038650512695 32.26708984375 42.27562713623047 L 32.32233047485352 42.27562713623047 C 32.32233047485352 42.33086776733398 32.37755966186523 42.3861083984375 32.43280029296875 42.3861083984375 L 32.488037109375 42.3861083984375 C 32.54021835327148 42.3861083984375 32.5954475402832 42.44134902954102 32.65068817138672 42.44134902954102 L 32.70592880249023 42.44134902954102 L 32.81641006469727 42.44134902954102 L 32.87164688110352 42.44134902954102 C 33.14477920532227 42.44134902954102 33.41483688354492 42.2786979675293 33.52531814575195 42.00556564331055 C 33.58055877685547 41.83985900878906 33.74319839477539 41.56672668457031 34.07156753540039 41.40407562255859 L 38.21755981445312 39.2221565246582 L 41.00102996826172 37.74910736083984 C 41.20296096801758 37.64861297607422 41.41537475585938 37.5999641418457 41.62228012084961 37.5999641418457 C 42.08518981933594 37.5999641418457 42.52030181884766 37.84360504150391 42.74723815917969 38.29535675048828 C 43.07255935668945 38.94907760620117 42.85466003417969 39.71319580078125 42.20098876953125 40.04156875610352 C 41.92786026000977 40.20421600341797 41.76520919799805 40.47733688354492 41.76520919799805 40.75046539306641 C 41.76520919799805 40.91312789916992 41.82044982910156 41.02053833007812 41.87569046020508 41.13100814819336 C 41.99069213867188 41.39726638793945 42.26242828369141 41.55707168579102 42.54516983032227 41.55707168579102 C 42.66978454589844 41.55707168579102 42.79653930664062 41.52602767944336 42.91294860839844 41.45937728881836 C 43.11488342285156 41.35888290405273 43.32728958129883 41.31023406982422 43.53419494628906 41.31023406982422 C 43.99710845947266 41.31023406982422 44.43223190307617 41.55388259887695 44.6591682434082 42.0056266784668 C 44.98448944091797 42.65934753417969 44.76657867431641 43.42347717285156 44.11290740966797 43.75183868408203 L 43.34875869750977 44.13237762451172 C 42.96516036987305 44.29806900024414 42.80250930786133 44.78910827636719 43.0203971862793 45.16964721679688 C 43.13540267944336 45.4359016418457 43.40713500976562 45.59570693969727 43.68987655639648 45.59570693969727 C 43.81449127197266 45.59570693969727 43.94124984741211 45.56466293334961 44.05765914916992 45.49800872802734 C 44.25959014892578 45.39751815795898 44.47200012207031 45.34886932373047 44.67890167236328 45.34886932373047 C 45.14181137084961 45.34886932373047 45.57693099975586 45.59251403808594 45.80386734008789 46.04425811767578 C 46.12918853759766 46.6979866027832 45.91127777099609 47.46210479736328 45.25761795043945 47.79047775268555 L 44.49346923828125 48.17100524902344 C 44.10985946655273 48.33669662475586 43.94721984863281 48.82772827148438 44.16510772705078 49.20826721191406 C 44.28010559082031 49.47452545166016 44.55184555053711 49.63433837890625 44.83458709716797 49.63433837890625 C 44.95920181274414 49.63433837890625 45.08595657348633 49.60329437255859 45.20236968994141 49.53663635253906 C 45.40430068969727 49.4361457824707 45.61670684814453 49.38749694824219 45.82361221313477 49.38749694824219 C 46.28651809692383 49.38749694824219 46.72164154052734 49.63114547729492 46.94857788085938 50.0828971862793 C 47.27389907836914 50.73660659790039 47.05598831176758 51.50074005126953 46.40232849121094 51.82910919189453 L 25.23361968994141 62.90486907958984 C 24.85000991821289 63.07054901123047 24.68737030029297 63.56158828735352 24.90525817871094 63.9421272277832 C 25.06789779663086 64.21525573730469 25.34103012084961 64.37789916992188 25.61415863037109 64.37789916992188 C 25.77680969238281 64.37789916992188 25.88422012329102 64.32266998291016 25.99469757080078 64.26742553710938 L 47.16339874267578 53.19166564941406 C 48.52593994140625 52.42748641967773 49.07218933105469 50.73658752441406 48.36328887939453 49.31876754760742 C 48.09012603759766 48.71723937988281 47.65435028076172 48.33670806884766 47.10809707641602 48.06357574462891 C 47.65435791015625 47.24722671508789 47.70958709716797 46.15473556518555 47.21857833862305 45.22792816162109 C 46.94540786743164 44.62640762329102 46.50962829589844 44.24587631225586 45.96337890625 43.97273635864258 C 46.45439910888672 43.15639877319336 46.56488037109375 42.06389617919922 46.07386016845703 41.1370964050293 C 45.69023895263672 40.42817687988281 45.03654861450195 39.93716812133789 44.3276481628418 39.71927642822266 L 44.3276481628418 39.66403579711914 C 44.54553985595703 38.95516586303711 44.43812942504883 38.13578796386719 44.10976791381836 37.48211669921875 C 43.57324600219727 36.5255012512207 42.57991790771484 35.97124862670898 41.54500961303711 35.97124862670898 C 41.10587310791016 35.97124862670898 40.65924453735352 36.071044921875 40.23685836791992 36.2822380065918 L 38.11016845703125 37.42688751220703 L 36.58189010620117 35.02703857421875 L 38.16539764404297 34.20762634277344 C 39.31311798095703 33.60615539550781 40.07727813720703 32.46149826049805 40.23991775512695 31.206298828125 C 47.66094970703125 28.2049674987793 53.06182098388672 27.49604797363281 55.8974609375 27.33339691162109 L 56.225830078125 27.98706817626953 C 56.55421829223633 28.58858871459961 57.10044097900391 29.02436828613281 57.75409698486328 29.24225616455078 C 57.97198867797852 29.2974967956543 58.2451171875 29.35273742675781 58.51824951171875 29.35273742675781 C 58.95398712158203 29.35273742675781 59.33758926391602 29.2974967956543 59.7181282043457 29.07960891723633 L 60.37179946899414 28.75124740600586 C 60.97332763671875 28.42284774780273 61.40911102294922 27.87662887573242 61.62699890136719 27.22295761108398 C 61.84488677978516 26.56931686401367 61.79270935058594 25.86038589477539 61.46434020996094 25.25889587402344 L 57.26304626464844 17.18500900268555 C 58.68085861206055 16.04027557373047 59.11664581298828 14.02098083496094 58.24507904052734 12.38530731201172 C 57.54692459106445 11.07965087890625 56.19010543823242 10.32931518554688 54.78277587890625 10.32939147949219 C 54.42701721191406 10.32941436767578 54.06782531738281 10.37738800048828 53.71546936035156 10.47647094726562 L 49.51417922973633 2.402587890625 C 49.185791015625 1.801055908203125 48.6395378112793 1.365287780761719 47.98590087890625 1.147384643554688 C 47.723388671875 1.059883117675781 47.45204162597656 1.01593017578125 47.1822395324707 1.015945434570312 M 58.46183776855469 27.89134216308594 C 58.07997131347656 27.89134216308594 57.72772598266602 27.68119812011719 57.53594970703125 27.3364372253418 L 56.98968887329102 26.24393844604492 L 46.18732833862305 5.566253662109375 L 45.64107894897461 4.4737548828125 L 45.64109802246094 4.47369384765625 C 45.36796951293945 3.927459716796875 45.58585739135742 3.325935363769531 46.13211822509766 3.055885314941406 L 46.7857780456543 2.727516174316406 C 46.92045593261719 2.659225463867188 47.07619857788086 2.612045288085938 47.24003982543945 2.612052917480469 C 47.34127044677734 2.612060546875 47.44562149047852 2.630081176757812 47.5499267578125 2.672264099121094 C 47.82304763793945 2.727516174316406 48.04093933105469 2.945404052734375 48.15142059326172 3.163284301757812 L 54.09577941894531 14.67428588867188 L 55.51359939575195 17.40253829956055 L 60.04320907592773 26.07820892333984 C 60.1536865234375 26.29610824584961 60.1536865234375 26.56922912597656 60.09844970703125 26.84235763549805 C 60.04320907592773 27.115478515625 59.8253288269043 27.33336639404297 59.60743713378906 27.44384765625 L 58.95376586914062 27.772216796875 C 58.79106903076172 27.85356521606445 58.62382507324219 27.89134216308594 58.46183776855469 27.89134216308594 M 40.13269805908203 29.5677490234375 C 40.13269805908203 29.4603385925293 40.07744979858398 29.40509796142578 40.07744979858398 29.34985733032227 C 40.07744979858398 29.34985733032227 40.02220916748047 29.29462814331055 40.02220916748047 29.23938751220703 C 39.97003936767578 29.13197708129883 39.91479873657227 28.96931838989258 39.85956954956055 28.85884857177734 L 34.24052810668945 18.16725540161133 C 34.18528747558594 18.05984878540039 34.13311767578125 17.89718627929688 34.02264022827148 17.78670883178711 C 33.9674072265625 17.73147583007812 33.9674072265625 17.73147583007812 33.91217041015625 17.67623901367188 C 33.91217041015625 17.62406539916992 33.85692977905273 17.56882858276367 33.80168914794922 17.51358795166016 L 33.80132675170898 17.51309585571289 C 39.85622787475586 13.47442626953125 43.51426696777344 9.708999633789062 45.42309951782227 7.364364624023438 L 55.080810546875 25.80223846435547 C 52.07971954345703 26.02016830444336 46.89645767211914 26.89480590820312 40.13269805908203 29.5677490234375 M 56.4986686706543 15.76407623291016 L 54.4793586730957 11.89125823974609 L 54.47937774658203 11.89117431640625 L 54.4793586730957 11.89125823974609 C 54.57747650146484 11.88051605224609 54.67502593994141 11.87520599365234 54.7716064453125 11.87520599365234 C 55.64169692993164 11.87520599365234 56.43203735351562 12.30664825439453 56.8270378112793 13.09114074707031 C 57.31807708740234 14.01786804199219 57.15233612060547 15.05517578125 56.4986686706543 15.76407623291016 M 27.16881942749023 37.90851974487305 C 26.28791046142578 37.90851974487305 25.44180297851562 37.44308853149414 25.02148818969727 36.60461807250977 L 22.23801040649414 31.2586669921875 L 19.67247009277344 26.34850692749023 L 19.4545783996582 25.91272735595703 L 19.45436859130859 25.91311645507812 C 18.85289001464844 24.71315765380859 19.28867721557617 23.24012756347656 20.4333381652832 22.58952713012695 L 29.54502868652344 17.84198760986328 C 29.87337875366211 17.67932891845703 30.25697708129883 17.5688591003418 30.63751983642578 17.5688591003418 C 31.1285400390625 17.5688591003418 31.61956024169922 17.73149871826172 32.05533981323242 18.004638671875 C 32.38370895385742 18.22253799438477 32.65683746337891 18.54783630371094 32.81948852539062 18.87620544433594 L 38.44472885131836 29.56779861450195 C 38.49996948242188 29.67827606201172 38.49996948242188 29.7304573059082 38.55521011352539 29.84092712402344 C 38.66262054443359 30.11101913452148 38.71785736083984 30.43937683105469 38.71785736083984 30.71250915527344 C 38.71785736083984 31.63922882080078 38.22683715820312 32.45864868164062 37.40742874145508 32.89442825317383 L 34.18816757202148 34.5853271484375 L 28.29597854614258 37.64188766479492 C 27.93453598022461 37.8221321105957 27.54853057861328 37.90851974487305 27.16881942749023 37.90851974487305 M 22.11666107177734 36.44855117797852 C 21.23976898193359 36.44855117797852 20.3775749206543 35.96254348754883 19.94253921508789 35.13464736938477 L 17.7606086730957 30.93334579467773 L 17.76045989990234 30.93334579467773 C 17.16203689575195 29.78860855102539 17.54259872436523 28.42298889160156 18.63508987426758 27.71408843994141 L 20.87231826782227 31.97060775756836 L 23.10648727416992 36.22713851928711 C 22.78972244262695 36.3774528503418 22.45217132568359 36.44855117797852 22.11666107177734 36.44855117797852 M 32.8748893737793 40.31820678710938 L 31.29137802124023 37.86312866210938 L 35.21950912475586 35.78859710693359 L 36.74778747558594 38.18845748901367 L 33.36589813232422 39.98983764648438 C 33.2032470703125 40.10031890869141 33.03752899169922 40.20772552490234 32.8748893737793 40.31820678710938 M 55.69065856933594 1.359474182128906 C 55.29567718505859 1.359474182128906 54.96314239501953 1.670906066894531 54.91484069824219 2.074447631835938 C 54.85959625244141 2.399734497070312 55.18796920776367 2.783348083496094 55.62374114990234 2.835517883300781 L 55.62403869628906 2.835494995117188 C 59.55216979980469 3.216033935546875 62.98928070068359 5.508438110351562 64.84257507324219 9.0008544921875 C 66.69618225097656 12.49319458007812 66.58879089355469 16.63926696777344 64.67991638183594 20.07661819458008 C 64.4620361328125 20.45715713500977 64.62468719482422 20.94818878173828 64.95305633544922 21.16911697387695 C 65.06352996826172 21.22434616088867 65.22618103027344 21.27958679199219 65.33358764648438 21.27958679199219 C 65.60670471191406 21.27958679199219 65.87983703613281 21.11693572998047 66.04249572753906 20.8990478515625 C 68.27971649169922 16.97090911865234 68.33494567871094 12.27836608886719 66.2603759765625 8.350234985351562 C 64.18585205078125 4.366874694824219 60.25772094726562 1.749168395996094 55.78640747070312 1.365547180175781 C 55.75417327880859 1.361457824707031 55.72221374511719 1.359474182128906 55.69065856933594 1.359474182128906 M 57.89212799072266 5.456153869628906 C 57.56676483154297 5.456153869628906 57.27764129638672 5.654586791992188 57.15236663818359 5.947677612304688 C 56.98664093017578 6.383445739746094 57.20759582519531 6.822296142578125 57.58813858032227 6.984939575195312 C 59.33427810668945 7.693809509277344 60.75516891479492 9.004234313964844 61.62673950195312 10.63990783691406 C 62.498291015625 12.330810546875 62.7161865234375 14.23965454101562 62.33563995361328 16.04108810424805 L 62.33567810058594 16.04111862182617 C 62.22519683837891 16.47690582275391 62.49832916259766 16.85744857788086 62.93410873413086 16.91575622558594 L 63.09675598144531 16.91575622558594 C 63.48036956787109 16.91575622558594 63.80565643310547 16.69480895996094 63.86090087890625 16.31425857543945 C 64.35192108154297 14.13233947753906 64.02658843994141 11.83987426757812 62.98932647705078 9.875816345214844 C 61.95513916015625 7.911750793457031 60.2641487121582 6.383476257324219 58.18962860107422 5.511894226074219 C 58.0894889831543 5.47381591796875 57.98920059204102 5.456153869628906 57.89212799072266 5.456153869628906 M 64.29978179931641 26.56942749023438 C 63.86400604248047 26.56942749023438 63.53563690185547 26.89779663085938 63.53563690185547 27.33356857299805 C 63.53563690185547 27.76935577392578 63.86400604248047 28.09772872924805 64.29978179931641 28.09772872924805 C 66.26385498046875 28.09772872924805 67.89952850341797 29.7333984375 67.89952850341797 31.69746780395508 L 67.89952850341797 65.68836975097656 L 11.9786376953125 65.68529510498047 L 11.9786376953125 31.7533073425293 C 11.9786376953125 30.33549880981445 12.79804992675781 29.02506637573242 14.10533142089844 28.47881698608398 C 14.48587036132812 28.31617736816406 14.70681762695312 27.82515716552734 14.48587036132812 27.44155883789062 C 14.36779022216797 27.16527938842773 14.07661437988281 26.97311782836914 13.77912902832031 26.97311782836914 C 13.66686248779297 26.97311782836914 13.5537109375 27.00048065185547 13.4486083984375 27.06101608276367 C 11.59500122070312 27.88042831420898 10.33988952636719 29.73395538330078 10.33988952636719 31.80855560302734 L 10.34295654296875 67.32437133789062 L 69.42756652832031 67.32437133789062 L 69.42756652832031 31.75356674194336 L 69.48311614990234 31.75275802612305 C 69.48311614990234 28.91711807250977 67.19065856933594 26.56942749023438 64.29978179931641 26.56942749023438 M 3.196197509765625 69.99704742431641 L 3.196197509765625 73.92517852783203 C 3.196197509765625 76.16233062744141 5.049728393554688 78.01593780517578 7.286956787109375 78.01593780517578 L 72.64714050292969 78.01593780517578 C 74.88429260253906 78.01593780517578 76.73789978027344 76.16240692138672 76.73789978027344 73.92517852783203 L 76.73789978027344 69.99704742431641 L 44.44126892089844 69.99704742431641 L 44.44126892089844 70.76118469238281 C 44.44126892089844 72.12684631347656 43.29354858398438 73.27149963378906 41.93095779418945 73.27149963378906 L 38.00283050537109 73.27149963378906 C 36.63716888427734 73.27149963378906 35.49251937866211 72.123779296875 35.49251937866211 70.76118469238281 L 35.49251937866211 69.99704742431641 L 3.196197509765625 69.99704742431641 M 41.93126678466797 74.85197448730469 C 43.95056915283203 74.85197448730469 45.58931732177734 73.37892913818359 45.9698600769043 71.52531433105469 L 75.15745544433594 71.52531433105469 L 75.15776062011719 73.86994934082031 C 75.15776062011719 75.235595703125 74.01004028320312 76.38025665283203 72.64744567871094 76.38025665283203 L 7.287261962890625 76.38025665283203 C 5.921607971191406 76.38025665283203 4.776947021484375 75.23253631591797 4.776947021484375 73.86994934082031 L 4.776947021484375 71.52531433105469 L 33.96453857421875 71.52531433105469 C 34.34816741943359 73.43415832519531 36.03907012939453 74.85197448730469 38.00313949584961 74.85197448730469 L 41.93126678466797 74.85197448730469 M 47.1822395324707 0.9159393310546875 C 47.46463012695312 0.9159393310546875 47.74565887451172 0.961883544921875 48.01751708984375 1.052520751953125 C 48.70616912841797 1.282089233398438 49.26885986328125 1.744537353515625 49.60194778442383 2.354667663574219 L 53.76704406738281 10.35894012451172 C 54.09832763671875 10.27297210693359 54.43960571289062 10.22941589355469 54.78276824951172 10.22940063476562 C 56.27722930908203 10.22931671142578 57.63769912719727 11.03733825683594 58.33325958251953 12.33815765380859 C 59.20800018310547 13.97975921630859 58.80918884277344 16.0150260925293 57.38912582397461 17.21065902709961 L 61.55304718017578 25.21273803710938 C 61.88788604736328 25.82604598999023 61.94976806640625 26.57090759277344 61.72187042236328 27.25457763671875 C 61.49232864379883 27.94320678710938 61.02987670898438 28.50590896606445 60.41971588134766 28.83901596069336 L 59.76538848876953 29.16777801513672 C 59.32551193237305 29.41884994506836 58.88817977905273 29.45273590087891 58.51824951171875 29.45273590087891 C 58.28888702392578 29.45273590087891 58.03089904785156 29.41559600830078 57.72953033447266 29.33918762207031 L 57.72595977783203 29.33828735351562 L 57.72248077392578 29.33712768554688 C 57.03384780883789 29.10757827758789 56.47116088867188 28.64513778686523 56.13805770874023 28.03498840332031 L 55.83763122558594 27.43706893920898 C 52.61420059204102 27.62894058227539 47.3276252746582 28.45444107055664 40.33113098144531 31.27730560302734 C 40.14479827880859 32.5711784362793 39.35595703125 33.69660949707031 38.21181869506836 34.29619598388672 L 36.72499465942383 35.06557846069336 L 38.14460372924805 37.29478454589844 L 40.18946838378906 36.19417572021484 C 40.61887741088867 35.97942733764648 41.07404708862305 35.87124633789062 41.54500961303711 35.87124633789062 C 42.64045715332031 35.87124633789062 43.65663909912109 36.46975708007812 44.19698715209961 37.43319702148438 C 44.54810333251953 38.13193893432617 44.63573455810547 38.95516204833984 44.43636703491211 39.64925384521484 C 45.17316436767578 39.89773941040039 45.7989387512207 40.41892623901367 46.16180801391602 41.08950805664062 C 46.62328720092773 41.96055221557617 46.59824752807617 43.03989410400391 46.10240173339844 43.93207550048828 C 46.67532730102539 44.23869705200195 47.06011581420898 44.63870620727539 47.30834579467773 45.18376159667969 C 47.79306793212891 46.10083770751953 47.76892471313477 47.17874145507812 47.25136184692383 48.02518844604492 C 47.82295989990234 48.33203887939453 48.20676422119141 48.73223495483398 48.45433807373047 49.27742004394531 C 49.17733001708984 50.72325897216797 48.63246917724609 52.48239898681641 47.21231842041016 53.27888488769531 L 26.04105758666992 64.35602569580078 L 26.033447265625 64.35985565185547 C 25.92284774780273 64.41518402099609 25.79748916625977 64.47789764404297 25.61415863037109 64.47789764404297 C 25.30188751220703 64.47789764404297 24.99732971191406 64.29220581054688 24.81933975219727 63.9932861328125 C 24.69947052001953 63.78397750854492 24.67506790161133 63.53314590454102 24.75151824951172 63.30363845825195 C 24.82514953613281 63.08259963989258 24.98500061035156 62.90456390380859 25.19043731689453 62.81460571289062 L 46.3559684753418 51.74050903320312 C 46.9521484375 51.44098663330078 47.16779708862305 50.74785614013672 46.85904693603516 50.12744903564453 C 46.65781021118164 49.72686004638672 46.27066802978516 49.48749542236328 45.8236083984375 49.48749542236328 C 45.62949752807617 49.48749542236328 45.43098831176758 49.53501892089844 45.24935913085938 49.62495422363281 C 45.12326812744141 49.696533203125 44.97992324829102 49.73433685302734 44.83458709716797 49.73433685302734 C 44.501708984375 49.73433685302734 44.20442962646484 49.54563903808594 44.07556915283203 49.25309753417969 C 43.95894622802734 49.04621124267578 43.93551254272461 48.79751586914062 44.01136016845703 48.56979751586914 C 44.08510208129883 48.34841156005859 44.24533081054688 48.170166015625 44.45122909545898 48.08032989501953 L 45.21303939819336 47.70096588134766 C 45.80743789672852 47.40236663818359 46.02307891845703 46.7092170715332 45.71434020996094 46.08880615234375 C 45.51310729980469 45.68822860717773 45.12595748901367 45.44886779785156 44.67889785766602 45.44886779785156 C 44.48478698730469 45.44886779785156 44.28627777099609 45.49639129638672 44.10464859008789 45.58632659912109 C 43.97855758666992 45.65790176391602 43.83521270751953 45.69570541381836 43.68988037109375 45.69570541381836 C 43.35700225830078 45.69570541381836 43.05972290039062 45.50701141357422 42.93085861206055 45.21448135375977 C 42.81423950195312 45.00760650634766 42.79080200195312 44.7588996887207 42.86665725708008 44.53117752075195 C 42.94039154052734 44.30978012084961 43.10062026977539 44.13153839111328 43.3065185546875 44.04170227050781 L 44.06832885742188 43.66232681274414 C 44.66273880004883 43.36372756958008 44.87838745117188 42.67059707641602 44.56963729858398 42.05017852783203 C 44.368408203125 41.64959716796875 43.98125839233398 41.41023635864258 43.53419876098633 41.41023635864258 C 43.3400764465332 41.41023635864258 43.14156723022461 41.45775985717773 42.95993804931641 41.54769515991211 C 42.83385848999023 41.6192626953125 42.69051361083984 41.65706634521484 42.54516983032227 41.65706634521484 C 42.21134948730469 41.65706634521484 41.913330078125 41.46729278564453 41.78506088256836 41.1733512878418 L 41.78324890136719 41.16973876953125 C 41.72792053222656 41.05914688110352 41.66520690917969 40.93379592895508 41.66520690917969 40.75046539306641 C 41.66520690917969 40.43821716308594 41.85089874267578 40.1336555480957 42.14981842041016 39.95564651489258 L 42.15289688110352 39.95381546020508 L 42.15609741210938 39.95220565795898 C 42.75080871582031 39.65345764160156 42.96645736694336 38.9603157043457 42.65770721435547 38.33990859985352 C 42.45647811889648 37.93932723999023 42.06932830810547 37.69996643066406 41.62228012084961 37.69996643066406 C 41.42728805541992 37.69996643066406 41.22786712646484 37.74791717529297 41.04557800292969 37.83863830566406 L 38.26433944702148 39.310546875 L 34.11813735961914 41.49256896972656 C 33.83813858032227 41.63129806518555 33.67770004272461 41.86467742919922 33.62018966674805 42.03718566894531 L 33.61919784545898 42.04016876220703 L 33.61801910400391 42.04306793212891 C 33.49746704101562 42.34110641479492 33.19751739501953 42.54134750366211 32.87164688110352 42.54134750366211 L 32.81641006469727 42.54134750366211 L 32.70592880249023 42.54134750366211 L 32.65068817138672 42.54134750366211 C 32.59877014160156 42.54134750366211 32.55609893798828 42.51970672607422 32.52182006835938 42.50232696533203 C 32.50990676879883 42.49628829956055 32.49192047119141 42.48715591430664 32.48526000976562 42.48592758178711 L 32.43280029296875 42.48610687255859 C 32.35798645019531 42.48610687255859 32.28771209716797 42.43983459472656 32.25032043457031 42.37562561035156 L 32.22566986083984 42.37562561035156 L 32.19635009765625 42.34630584716797 C 32.13684844970703 42.28680801391602 32.07559585571289 42.22555923461914 32.06025695800781 42.1494255065918 L 31.52215194702148 41.36968994140625 L 31.0535888671875 41.60397720336914 C 28.55627822875977 42.87956619262695 27.2922477722168 45.81366729736328 28.04876708984375 48.58024597167969 C 28.16508865356445 48.98087692260742 28.01166915893555 49.35912704467773 27.62741851806641 49.61650848388672 L 27.62298965454102 49.61947631835938 L 27.61826705932617 49.62195587158203 L 14.63421630859375 56.44095611572266 C 14.51066589355469 56.51177978515625 14.36631011962891 56.55012512207031 14.21994018554688 56.55012512207031 C 13.88706207275391 56.55012512207031 13.58978271484375 56.36142730712891 13.46092224121094 56.06889343261719 C 13.34429931640625 55.86201477050781 13.32086181640625 55.61330795288086 13.39672088623047 55.38558959960938 C 13.47032165527344 55.16458129882812 13.63015747070312 54.98656463623047 13.83554840087891 54.89657974243164 L 26.26052093505859 48.38639831542969 C 25.67882537841797 45.04150009155273 27.33569717407227 41.62591934204102 30.30862045288086 40.06019592285156 L 30.64594268798828 39.89152145385742 L 29.93112564086914 38.79653549194336 L 29.09514236450195 39.09849166870117 C 28.52967071533203 39.40574645996094 27.94492340087891 39.54281616210938 27.20037841796875 39.54281616210938 C 26.79518890380859 39.54281616210938 26.34794998168945 39.4821662902832 25.97332000732422 39.37640762329102 C 25.06214141845703 39.10788345336914 24.28716278076172 38.52090072631836 23.78071975708008 37.71857833862305 C 23.28071975708008 37.95167922973633 22.70649337768555 38.06980895996094 22.07234954833984 38.06980895996094 C 21.66719055175781 38.06980895996094 21.21994781494141 38.00914764404297 20.84529876708984 37.90338897705078 C 19.80671691894531 37.57465744018555 18.95338821411133 36.85990905761719 18.43947982788086 35.88990783691406 L 16.25424957275391 31.74446868896484 C 15.26401519775391 29.81972122192383 15.94477844238281 27.45112228393555 17.80068588256836 26.31063461303711 C 17.42501068115234 25.38220977783203 17.39898681640625 24.35474014282227 17.72897720336914 23.40742874145508 C 18.07030868530273 22.42755889892578 18.76351928710938 21.62069702148438 19.6809196472168 21.13546752929688 L 28.79314804077148 16.38764572143555 C 29.36875915527344 16.08516693115234 30.01677703857422 15.92520904541016 30.66684722900391 15.92520904541016 C 31.29718780517578 15.92520904541016 31.92565536499023 16.07563400268555 32.48828506469727 16.36068344116211 C 39.17714309692383 11.96754455566406 42.86535263061523 7.895210266113281 44.48931884765625 5.824874877929688 L 44.18938827514648 5.227806091308594 C 43.50551986694336 3.914649963378906 44.01459884643555 2.287513732910156 45.32487869262695 1.601966857910156 L 45.97134780883789 1.223716735839844 C 46.34096908569336 1.021888732910156 46.7588005065918 0.91595458984375 47.1822395324707 0.9159393310546875 Z M 58.46183776855469 27.79133605957031 C 58.61450958251953 27.79133605957031 58.76496887207031 27.75480651855469 58.90904998779297 27.68277740478516 L 59.56254959106445 27.35448837280273 C 59.74029922485352 27.26435852050781 59.94893646240234 27.07715606689453 60.00042724609375 26.82253646850586 C 60.0587158203125 26.53434753417969 60.04309844970703 26.29912567138672 59.95401763916016 26.12342834472656 L 55.42494964599609 17.44881820678711 L 54.00704956054688 14.72039794921875 L 48.06256866455078 3.20916748046875 C 47.97193145751953 3.030426025390625 47.78471755981445 2.821784973144531 47.53009796142578 2.770278930664062 L 47.52101898193359 2.768447875976562 L 47.51242828369141 2.764968872070312 C 47.42562866210938 2.7298583984375 47.33397674560547 2.712059020996094 47.24003982543945 2.712059020996094 C 47.10556793212891 2.712059020996094 46.96794891357422 2.747268676757812 46.83099746704102 2.816703796386719 L 46.17700958251953 3.145248413085938 C 45.93014907836914 3.267288208007812 45.75019836425781 3.466278076171875 45.66973876953125 3.705848693847656 C 45.5918083190918 3.937896728515625 45.61339950561523 4.194709777832031 45.73053741455078 4.428977966308594 L 46.27676773071289 5.521537780761719 L 57.07831954956055 26.19763565063477 L 57.62538909912109 27.29171752929688 C 57.79609680175781 27.59840774536133 58.11740112304688 27.79133605957031 58.46183776855469 27.79133605957031 Z M 54.92168426513672 25.71395492553711 L 45.40469360351562 7.54473876953125 C 43.76764678955078 9.534133911132812 40.17645263671875 13.36610412597656 33.95408248901367 17.53129577636719 C 33.97767639160156 17.56148147583008 33.9965934753418 17.59344100952148 34.00589752197266 17.62854385375977 L 34.09334945678711 17.71599578857422 C 34.18875885009766 17.81140899658203 34.24448013305664 17.9356575012207 34.28923797607422 18.03549575805664 C 34.30310821533203 18.06642913818359 34.31616973876953 18.09567642211914 34.32946014404297 18.12151718139648 L 39.94808959960938 28.81232833862305 C 39.97974014282227 28.87557601928711 40.00965881347656 28.9502067565918 40.03859710693359 29.02237701416016 C 40.06441879272461 29.08679580688477 40.08881759643555 29.14763641357422 40.11215972900391 29.19569778442383 L 40.12220764160156 29.21638870239258 L 40.12220764160156 29.23938751220703 C 40.12344741821289 29.24653625488281 40.13660049438477 29.26720809936523 40.14867782592773 29.27967834472656 L 40.17684936523438 29.30875778198242 L 40.17744827270508 29.34985733032227 C 40.17813873291016 29.35453796386719 40.18532943725586 29.37175750732422 40.19057846069336 29.38432693481445 C 40.19626998901367 29.39795303344727 40.20263671875 29.41318511962891 40.20866012573242 29.43031311035156 C 47.2477912902832 26.66210556030273 52.39144134521484 25.91190719604492 54.92168426513672 25.71395492553711 Z M 56.51934051513672 15.58743286132812 C 57.08011627197266 14.89620971679688 57.16908264160156 13.95024871826172 56.73867797851562 13.13795471191406 C 56.37170791625977 12.40918731689453 55.63671112060547 11.97520446777344 54.7716064453125 11.97520446777344 C 54.72727203369141 11.97520446777344 54.68255615234375 11.97638702392578 54.63774871826172 11.97873687744141 L 56.51934051513672 15.58743286132812 Z M 38.46379089355469 29.88167190551758 C 38.43441390991211 29.82228469848633 38.4189567565918 29.77677154541016 38.40527725219727 29.73651885986328 C 38.3922004699707 29.69801712036133 38.37984848022461 29.66165542602539 38.35528945922852 29.61251831054688 L 32.73098754882812 18.92276763916016 C 32.5665397644043 18.59083557128906 32.30052947998047 18.28735733032227 32.00004959106445 18.08795547485352 C 31.56332015991211 17.81426620483398 31.09140777587891 17.66885757446289 30.63751983642578 17.66885757446289 C 30.20960998535156 17.66885757446289 29.83136749267578 17.81173706054688 29.58942031860352 17.93159866333008 L 20.47954940795898 22.67820739746094 C 19.95150756835938 22.97840881347656 19.56164932250977 23.47458648681641 19.38496780395508 24.0736083984375 C 19.21178817749023 24.66073226928711 19.26208877563477 25.28366470336914 19.52611923217773 25.83237838745117 L 19.54401779174805 25.86800765991211 L 19.76190948486328 26.30378723144531 L 22.32663726806641 31.21235656738281 L 25.11018753051758 36.55843734741211 C 25.49699783325195 37.33003616333008 26.28554916381836 37.80851745605469 27.16881942749023 37.80851745605469 C 27.54103851318359 37.80851745605469 27.91536712646484 37.71995544433594 28.25135040283203 37.55239868164062 L 34.14212036132812 34.49655914306641 L 37.36092758178711 32.8058967590332 C 38.14780807495117 32.38741683959961 38.61785888671875 31.6047477722168 38.61785888671875 30.71250915527344 C 38.61785888671875 30.43627166748047 38.560302734375 30.12605667114258 38.46379089355469 29.88167190551758 Z M 22.96842193603516 36.17926025390625 L 20.78377914428711 32.01708602905273 L 18.59862518310547 27.85965728759766 C 17.61502456665039 28.55736923217773 17.29536437988281 29.7994270324707 17.83649826049805 30.86262893676758 L 17.84935760498047 30.88725662231445 L 20.03128814697266 35.08855819702148 C 20.43340682983398 35.85380554199219 21.25204849243164 36.34854888916016 22.11665725708008 36.34854888916016 C 22.41359329223633 36.34854888916016 22.69961929321289 36.29164886474609 22.96842193603516 36.17926025390625 Z M 36.60538482666016 38.15100860595703 L 35.18468475341797 35.92008209228516 L 31.43455123901367 37.90060806274414 L 32.90359878540039 40.17822265625 C 32.95734024047852 40.1422004699707 33.01129531860352 40.10639572143555 33.06525802612305 40.07058715820312 C 33.14699935913086 40.016357421875 33.22873687744141 39.96211624145508 33.30970764160156 39.9071159362793 L 33.31414794921875 39.90409851074219 L 33.31888961791992 39.90157699584961 L 36.60538482666016 38.15100860595703 Z M 55.69065856933594 1.259468078613281 C 55.72658920288086 1.259468078613281 55.76303100585938 1.26177978515625 55.79899597167969 1.266349792480469 C 60.3101692199707 1.653297424316406 64.25563049316406 4.284378051757812 66.34906768798828 8.304046630859375 C 68.45241546630859 12.28665924072266 68.37039947509766 17.01375579833984 66.12939453125 20.94853591918945 L 66.12632751464844 20.95390701293945 L 66.12262725830078 20.95886611938477 C 65.93183898925781 21.21444702148438 65.62211608886719 21.37958908081055 65.33358764648438 21.37958908081055 C 65.20704650878906 21.37958908081055 65.02883148193359 21.31880569458008 64.90834045410156 21.2585563659668 L 64.90258026123047 21.25567626953125 L 64.89723968505859 21.2520866394043 C 64.54666137695312 21.01621627807617 64.34080505371094 20.46763610839844 64.5931396484375 20.02692794799805 C 66.51020050048828 16.5748176574707 66.57067108154297 12.47001647949219 64.75424957275391 9.047737121582031 C 62.92440032958984 5.599510192871094 59.51131057739258 3.315170288085938 55.62255096435547 2.935821533203125 L 55.62139892578125 2.935897827148438 L 55.61184692382812 2.934806823730469 C 55.35466003417969 2.904014587402344 55.10997772216797 2.763656616210938 54.95730590820312 2.559349060058594 C 54.83842849731445 2.400245666503906 54.78833770751953 2.222099304199219 54.81624603271484 2.057708740234375 C 54.87034606933594 1.604728698730469 55.24655914306641 1.259468078613281 55.69065856933594 1.259468078613281 Z M 57.89212799072266 5.356155395507812 C 58.00445938110352 5.356155395507812 58.11651611328125 5.377105712890625 58.22516632080078 5.418426513671875 C 60.32131958007812 6.299026489257812 62.04355621337891 7.865028381347656 63.07780838012695 9.8292236328125 C 64.13755798339844 11.83586120605469 64.45058441162109 14.14533233642578 63.95927429199219 16.33256530761719 C 63.89799118041992 16.74139785766602 63.55189895629883 17.0157585144043 63.09675598144531 17.0157585144043 L 62.93410873413086 17.0157585144043 L 62.92744827270508 17.0157585144043 L 62.92084884643555 17.01487731933594 C 62.67659759521484 16.98219680786133 62.47126770019531 16.8594970703125 62.34267807006836 16.66939544677734 C 62.21628952026367 16.4825553894043 62.17937850952148 16.25070571899414 62.23874664306641 16.01654815673828 C 62.62204742431641 14.20146942138672 62.37345886230469 12.306884765625 61.53784942626953 10.68572998046875 C 60.66577911376953 9.049140930175781 59.24949645996094 7.767318725585938 57.55052947998047 7.077598571777344 C 57.09884643554688 6.884567260742188 56.88364791870117 6.372947692871094 57.05889892578125 5.912124633789062 C 57.20379638671875 5.572914123535156 57.53025817871094 5.356155395507812 57.89212799072266 5.356155395507812 Z M 64.29978179931641 26.46942901611328 C 67.21302032470703 26.46942901611328 69.58311462402344 28.83951568603516 69.58311462402344 31.75275802612305 L 69.58311462402344 31.8513069152832 L 69.52757263183594 31.85211944580078 L 69.52757263183594 67.32437133789062 L 69.52757263183594 67.42436981201172 L 69.42756652832031 67.42436981201172 L 10.34295654296875 67.42436981201172 L 10.24296569824219 67.42436981201172 L 10.24295806884766 67.32437896728516 L 10.23989105224609 31.80856704711914 C 10.23989105224609 29.72145462036133 11.48140716552734 27.82345199584961 13.40346527099609 26.97164535522461 C 13.51880645751953 26.90625762939453 13.64517974853516 26.87311553955078 13.77912902832031 26.87311553955078 C 14.11427307128906 26.87311553955078 14.44084930419922 27.08816528320312 14.57546997070312 27.39682388305664 C 14.68418884277344 27.58897399902344 14.70363616943359 27.81565856933594 14.63014221191406 28.03583908081055 C 14.55031585693359 28.27497863769531 14.36882019042969 28.47495651245117 14.14463043212891 28.57076644897461 C 12.88929748535156 29.09531784057617 12.07863616943359 30.34441757202148 12.07863616943359 31.7533073425293 L 12.07863616943359 65.58530426025391 L 67.79953002929688 65.58836364746094 L 67.79953002929688 31.69746780395508 C 67.79953002929688 30.77426910400391 67.43229675292969 29.89859771728516 66.76547241210938 29.23177719116211 C 66.09864807128906 28.56495666503906 65.22299194335938 28.19772720336914 64.29978179931641 28.19772720336914 C 63.80713653564453 28.19772720336914 63.43563842773438 27.82621765136719 63.43563842773438 27.33356857299805 C 63.43563842773438 26.84092712402344 63.80713653564453 26.46942901611328 64.29978179931641 26.46942901611328 Z M 3.096199035644531 69.89704895019531 L 3.196197509765625 69.89704895019531 L 35.49251937866211 69.89704895019531 L 35.5925178527832 69.89704895019531 L 35.5925178527832 69.99704742431641 L 35.5925178527832 70.76118469238281 C 35.5925178527832 72.06770324707031 36.69630813598633 73.17149353027344 38.00283050537109 73.17149353027344 L 41.93095779418945 73.17149353027344 C 43.23748016357422 73.17149353027344 44.34127044677734 72.06770324707031 44.34127044677734 70.76118469238281 L 44.34127044677734 69.99704742431641 L 44.34127044677734 69.89704895019531 L 44.44126892089844 69.89704895019531 L 76.73789978027344 69.89704895019531 L 76.83789825439453 69.89704895019531 L 76.83789825439453 69.99704742431641 L 76.83789825439453 73.92517852783203 C 76.83789825439453 75.03390502929688 76.39904022216797 76.08335876464844 75.60215759277344 76.88022613525391 C 74.80529022216797 77.67708587646484 73.75585174560547 78.11593627929688 72.64714050292969 78.11593627929688 L 7.286956787109375 78.11593627929688 C 6.178230285644531 78.11593627929688 5.128776550292969 77.67707824707031 4.3319091796875 76.88019561767578 C 3.535049438476562 76.08332824707031 3.096199035644531 75.03388977050781 3.096199035644531 73.92517852783203 L 3.096199035644531 69.99704742431641 L 3.096199035644531 69.89704895019531 Z M 33.88344192504883 71.62532043457031 L 4.876945495605469 71.62532043457031 L 4.876945495605469 73.86994934082031 C 4.876945495605469 75.17646789550781 5.980735778808594 76.28025817871094 7.287261962890625 76.28025817871094 L 72.64744567871094 76.28025817871094 C 73.95397186279297 76.28025817871094 75.05776214599609 75.17646789550781 75.05776214599609 73.86994934082031 L 75.05747222900391 71.62532043457031 L 46.05062484741211 71.62532043457031 C 45.61539840698242 73.55783081054688 43.89592361450195 74.95198059082031 41.93126678466797 74.95198059082031 L 38.00313949584961 74.95198059082031 C 36.03018188476562 74.95198059082031 34.31065368652344 73.55787658691406 33.88344192504883 71.62532043457031 Z"/></g></g></svg>