<svg xmlns="http://www.w3.org/2000/svg" width="169.987" height="158" viewBox="0 0 169.987 158"><defs><style>.a{fill:#faf7f7;}.b,.e{fill:none;}.b{stroke:#313131;stroke-dasharray:1 15;}.c{fill:#2f344f;stroke:#fff;stroke-width:0.5px;}.d{stroke:none;}</style></defs><g transform="translate(-1275.007 -3780)"><g transform="translate(0 -255)"><path class="a" d="M-9443,227a85.621,85.621,0,0,1-17.012-1.7,84.586,84.586,0,0,1-15.856-4.886,85.052,85.052,0,0,1-14.366-7.734,85.657,85.657,0,0,1-12.54-10.247A85.635,85.635,0,0,1-9513.154,190a85.1,85.1,0,0,1-7.887-14.27,84.618,84.618,0,0,1-5.058-15.78A85.612,85.612,0,0,1-9527.993,143h169.987a85.584,85.584,0,0,1-1.895,16.954,84.623,84.623,0,0,1-5.059,15.78,85.094,85.094,0,0,1-7.887,14.27,85.657,85.657,0,0,1-10.381,12.426,85.6,85.6,0,0,1-12.54,10.247,84.979,84.979,0,0,1-14.366,7.734,84.542,84.542,0,0,1-15.855,4.886A85.636,85.636,0,0,1-9443,227Z" transform="translate(10803 3966)"/><g class="b" transform="translate(1287 4035)"><circle class="d" cx="73.5" cy="73.5" r="73.5"/><circle class="e" cx="73.5" cy="73.5" r="73"/></g></g><g transform="translate(1315.438 3813.125)"><path class="c" d="M68.187,33.13V7.875H65.923V32.692c-.977-.173-1.89-.318-2.7-.439a18.25,18.25,0,0,0-.9-5.039V17.2H60.056v5.418a18.368,18.368,0,0,0-25.751-4.731V8.554H32.04v11.2a18.353,18.353,0,0,0-5.584,12.452c-.478.074-1.016.163-1.6.265l0-13.273H22.589V32.9C16.011,34.245,6.563,37.03,6.563,41.959c0,4.48,7.781,7.661,18.167,9.413L21.245,72.926l2.236.361,3.486-21.571c1.6.23,3.238.428,4.915.591a14.391,14.391,0,0,0,25.91,0c1.486-.145,2.948-.318,4.374-.513L65.64,73.287l2.236-.361L64.409,51.458c10.651-1.727,18.7-4.94,18.7-9.5,0-4.742-8.188-7.424-14.926-8.829Zm-23.921.927c-1.695,0-3.51-3.125-3.51-5.322a3.51,3.51,0,1,1,7.021,0C47.777,30.933,45.962,34.057,44.267,34.057Zm-2.6,1.3a3.964,3.964,0,0,0,5.195,0,6.837,6.837,0,0,1,4.073,4.813c-1.883-.078-3.79-.127-5.725-.127-2.59,0-5.142.071-7.64.209a6.831,6.831,0,0,1,4.1-4.894Zm3.542,6.953a128.694,128.694,0,0,1,14.257.761l.718.081.375-.616a18.542,18.542,0,0,0,1.67-3.549,49.53,49.53,0,0,1,12.017,2.98c-4.614,1.943-14.745,4.186-29.417,4.186C30.3,46.149,20.176,43.926,15.516,42a52.4,52.4,0,0,1,11.908-3.054,18.345,18.345,0,0,0,1.734,3.677l.379.616.718-.085a125.865,125.865,0,0,1,14.958-.849ZM44.836,16.82a16.127,16.127,0,0,1,14.151,23.91c-1.861-.195-3.776-.34-5.718-.453a9.129,9.129,0,0,0-4.8-6.7,9.359,9.359,0,0,0,1.575-4.848,5.775,5.775,0,1,0-11.55,0,9.359,9.359,0,0,0,1.575,4.848,9.1,9.1,0,0,0-4.82,6.822c-1.529.113-3.04.241-4.519.407A16.125,16.125,0,0,1,44.837,16.821Zm0,41.349A12.122,12.122,0,0,1,34.6,52.547c3.365.258,6.819.389,10.237.389s6.872-.131,10.237-.389A12.117,12.117,0,0,1,44.836,58.169Zm0-7.5c-21.221,0-36.009-4.593-36.009-8.712,0-2.371,6.072-5.633,17.661-7.456a18.358,18.358,0,0,0,.322,2.24c-9.274,1.461-13.351,3.641-14.405,4.3l-1.529.952,1.522.966C16.531,45.583,28.45,48.41,44.84,48.41c16.536,0,28.45-2.852,32.519-5.506l1.472-.959L77.349,41c-1.3-.828-5.269-2.845-14.5-4.218a18.314,18.314,0,0,0,.329-2.236c12.176,1.808,17.665,4.993,17.665,7.417,0,4.119-14.791,8.709-36.009,8.709Z"/><path class="c" d="M47.475,22.515V20.25A13.906,13.906,0,0,0,33.586,34.139h2.265A11.635,11.635,0,0,1,47.475,22.515Z" transform="translate(-2.543 -1.165)"/><path class="c" d="M23.631,88.026l-2.236-.361.817-5.064,2.236.361Z" transform="translate(-1.396 -7.033)"/><path class="c" d="M73.06,88.026l-.817-5.064,2.236-.361.817,5.064Z" transform="translate(-6.182 -7.033)"/><path class="c" d="M47.668,68.375h2.265V82.756H47.668Z" transform="translate(-3.869 -5.694)"/><path class="c" d="M47.668,87.25h2.265v5.1H47.668Z" transform="translate(-3.869 -7.471)"/><path class="c" d="M13.75,9.168h2.265v2.87H13.75Z" transform="translate(-0.676 -0.122)"/><path class="c" d="M13.75,15.168h2.265v2.87H13.75Z" transform="translate(-0.676 -0.686)"/><path class="c" d="M16.418,12.5h2.87v2.265h-2.87Z" transform="translate(-0.928 -0.435)"/><path class="c" d="M10.418,12.5h2.87v2.265h-2.87Z" transform="translate(-0.363 -0.435)"/><path class="c" d="M81.023,62.785h2.265v2.866H81.023Z" transform="translate(-7.008 -5.168)"/><path class="c" d="M81.023,68.785h2.265v2.866H81.023Z" transform="translate(-7.008 -5.733)"/><path class="c" d="M83.691,66.117h2.87v2.265h-2.87Z" transform="translate(-7.259 -5.482)"/><path class="c" d="M77.691,66.117h2.87v2.265h-2.87Z" transform="translate(-6.694 -5.482)"/><path class="c" d="M82.441,10.582h2.265v2.866H82.441Z" transform="translate(-7.141 -0.255)"/><path class="c" d="M82.441,16.582h2.265v2.866H82.441Z" transform="translate(-7.141 -0.819)"/><path class="c" d="M85.109,13.918h2.87v2.265h-2.87Z" transform="translate(-7.393 -0.569)"/><path class="c" d="M79.109,13.918h2.87v2.265h-2.87Z" transform="translate(-6.828 -0.569)"/><path class="c" d="M24.254,9.168h2.265v8.153H24.254Z" transform="translate(-1.665 -0.122)"/></g></g></svg>