<svg xmlns="http://www.w3.org/2000/svg" width="169.998" height="158" viewBox="0 0 169.998 158"><defs><style>.a{fill:#faf7f7;}.b,.e{fill:none;}.b{stroke:#313131;stroke-dasharray:1 15;}.c{fill:#2f344f;stroke:#2f344f;stroke-width:0.8px;}.d{stroke:none;}</style></defs><g transform="translate(-475.002 -4431)"><path class="a" d="M-9457,221a85.64,85.64,0,0,1-17.131-1.727,84.586,84.586,0,0,1-15.955-4.953,85.05,85.05,0,0,1-14.438-7.837A85.7,85.7,0,0,1-9517.1,196.1a85.741,85.741,0,0,1-10.379-12.58,85.048,85.048,0,0,1-7.836-14.439,84.566,84.566,0,0,1-4.953-15.956A85.67,85.67,0,0,1-9542,136h170a85.642,85.642,0,0,1-1.727,17.131,84.561,84.561,0,0,1-4.953,15.956,84.949,84.949,0,0,1-7.837,14.439A85.615,85.615,0,0,1-9396.9,196.1a85.611,85.611,0,0,1-12.579,10.379,85,85,0,0,1-14.439,7.837,84.542,84.542,0,0,1-15.955,4.953A85.623,85.623,0,0,1-9457,221Z" transform="translate(10017 4368)"/><g class="b" transform="translate(487 4431)"><circle class="d" cx="73.5" cy="73.5" r="73.5"/><circle class="e" cx="73.5" cy="73.5" r="73"/></g><path class="c" d="M55.377,38.511a16.829,16.829,0,0,1-5.14,12.112V45.606c0-5.405-5.51-8.69-9.553-8.374a7.144,7.144,0,1,0-9.408-6.777.6.6,0,0,0,1.2,0,5.947,5.947,0,1,1,1.14,3.5.6.6,0,0,0-.966.719,7.08,7.08,0,0,0,3.516,2.56C33,36.988,26.763,39.68,26.763,45.6V50.62A16.878,16.878,0,0,1,44.158,22.6a.6.6,0,0,0,.4-1.134,18.077,18.077,0,1,0,9.474,7.776A.6.6,0,0,0,53,29.86a16.889,16.889,0,0,1,2.376,8.65Zm-15.47-.081L38.5,40.153l-1.411-1.724ZM36.247,51.592a.6.6,0,0,0-.86.842l2.882,3a19.024,19.024,0,0,1-5.219-.951v-9.43a.6.6,0,0,0-1.2,0v8.964a16.975,16.975,0,0,1-3.883-2.334V45.6c0-2.379,1.967-6.909,8.088-7.171a.543.543,0,0,0,.048.692l1.471,1.8-1.5,6.927a.6.6,0,0,0,1.176.253L38.5,42.316l2.024,9.508L38.5,53.891Zm12.789.087a16.969,16.969,0,0,1-3.883,2.334V45.05a.6.6,0,1,0-1.2,0l0,9.43a18.249,18.249,0,0,1-5.155.951l2.818-3a.593.593,0,0,0,.156-.547l-2.34-10.967,1.51-1.841a.6.6,0,0,0,.072-.647h.171c4.184,0,7.856,3.351,7.856,7.171ZM47.394,24.167a.6.6,0,1,1,.635-1.023A18.28,18.28,0,0,1,51.65,26.1c.617.653-.37,1.363-.875.827a17.124,17.124,0,0,0-3.381-2.761ZM31.759,33.043c-.054-.138-.105-.28-.15-.424a.6.6,0,1,1,1.146-.364c.039.117.081.238.123.352a.6.6,0,1,1-1.119.436Zm25.3-16.652a.6.6,0,0,1,.776-.92,30.347,30.347,0,0,1,3.5,3.456c.562.656-.445,1.327-.914.785a29.4,29.4,0,0,0-3.357-3.321ZM12.517,51.129a.6.6,0,1,1-1.083.526A29.732,29.732,0,0,1,8.423,39.112l-7.836,0a.6.6,0,0,1,0-1.2H8.423A30.117,30.117,0,0,1,37.9,8.441V.614a.6.6,0,1,1,1.2,0V8.447a30.155,30.155,0,0,1,13.223,3.348.6.6,0,0,1-.553,1.068A28.557,28.557,0,0,0,39.1,9.65v7.508a.6.6,0,0,1-1.2,0V9.65A28.909,28.909,0,0,0,9.626,37.912h7.511a.6.6,0,1,1,0,1.2H9.626a28.507,28.507,0,0,0,2.891,12.014Zm7.056,10.759a30.237,30.237,0,0,1-5.216-5.432.6.6,0,1,1,.966-.719,29.062,29.062,0,0,0,5.008,5.216c.7.568-.2,1.384-.758.935ZM76.407,39.11H68.575A30.115,30.115,0,0,1,39.1,68.575v7.833a.6.6,0,0,1-1.2,0v-7.83a30.046,30.046,0,0,1-15.151-4.44.6.6,0,0,1,.632-1.023A28.815,28.815,0,0,0,37.9,67.375V59.867a.6.6,0,0,1,1.2,0v7.508A28.908,28.908,0,0,0,67.371,39.116l-7.514-.006a.6.6,0,1,1,0-1.2h7.511a28.666,28.666,0,0,0-2.283-10.684.6.6,0,0,1,1.107-.469,29.864,29.864,0,0,1,2.379,11.153h7.836a.6.6,0,0,1,0,1.2Z" transform="translate(521.004 4464.997)"/></g></svg>