<svg xmlns="http://www.w3.org/2000/svg" width="89.078" height="43.622" viewBox="0 0 89.078 43.622"><defs><style>.a{fill:#f45753;}</style></defs><g transform="translate(-6 -27.458)"><path class="a" d="M7.7,36.8H7.1c-.1,0-.1,0-.2-.1l-.8-.5A.338.338,0,0,1,6,36V34.5a.32.32,0,0,1,.3-.3H7.6c.2,0,.4-.2.3-.4L7.8,33a1.155,1.155,0,0,1,1.3-1.4L19,32.9a.365.365,0,0,0,.3-.1l.3-.4a2.313,2.313,0,0,1,1.9-.9l2.5.2a1.5,1.5,0,0,1,1.3,1.9l-.1.4a.214.214,0,0,1-.2.2l-1.2.7a.621.621,0,0,0,.1,1.1.806.806,0,0,0,1.1-.3c.1-.1.1-.1.2-.1l1.6-.3a1.809,1.809,0,0,1,1.9.9l.3.5c.1.1.2.2.3.2a.684.684,0,0,1,.7.7v1a1.215,1.215,0,0,1-1.4,1.2l-3.1-.3a.428.428,0,0,0-.4.4,1.956,1.956,0,0,1-.9,2.1l-2.6,1.7c-.1.1-.2.2-.2.3v1a.32.32,0,0,1-.3.3L21,45.3c-.1,0-.2-.1-.3-.1l-.8-1.1c-.1-.1-.2-.2-.4-.1l-2.1.6a.214.214,0,0,0-.2.2l-.6,1.3a.365.365,0,0,0,.2.5l.9.3c.1,0,.2.2.2.3l0,.8a.267.267,0,0,0,.3.3l.5.1a1.388,1.388,0,0,1,1.1,1.2.32.32,0,0,0,.3.3h4.7a.365.365,0,0,1,.3.1l1.1,1.2a.365.365,0,0,0,.3.1h1.1a.32.32,0,0,1,.3.3v.7a.267.267,0,0,0,.3.3l2.2.3a.214.214,0,0,1,.2.2l1.2,2a1.823,1.823,0,0,1-.3,2.2l-.8.9a.365.365,0,0,0-.1.3l.1.3a4.013,4.013,0,0,1-1.3,3.6l-1.9,1.7a3.717,3.717,0,0,0-1.3,2.8v1.9c0,.1.1.3.2.3l.9.5a.4.4,0,0,1,.2.4l-.1.2a1.314,1.314,0,0,1-1.9.7l-.3-.2a1.812,1.812,0,0,1-.9-1.9l.1-.4c0-.1,0-.3-.2-.3a2.271,2.271,0,0,1-1-1.9v-5.8c0-.1-.1-.2-.2-.3l-.7-.4a2.086,2.086,0,0,1-.9-2.4l.1-.2a.585.585,0,0,0-.1-.4l-1.9-1.6a.365.365,0,0,1-.1-.3v-1.6a.267.267,0,0,1,.3-.3l.5-.1a.214.214,0,0,0,.2-.2l.3-1a.585.585,0,0,0-.1-.4l-.3-.3a.3.3,0,0,0-.4,0l-.5.3c-.2.1-.5,0-.5-.2l-.1-.9c0-.1-.1-.2-.2-.3l-1.1-.4c-.1,0-.2-.2-.2-.3a.267.267,0,0,0-.3-.3l-2.4-.6a1.262,1.262,0,0,1-.8-1.7c.1-.1,0-.3-.1-.4l-1.9-1.8a.365.365,0,0,1-.1-.3l.4-4.4a.267.267,0,0,1,.3-.3,1.281,1.281,0,0,0,1.1-1.2l.1-.8c0-.1,0-.1-.1-.2l-.9-1.4c-.1-.1-.2-.1-.3-.2l-2.7-.2c-.2,0-.3.1-.4.3A1.586,1.586,0,0,1,7.7,36.8Z"/><path class="a" d="M29.3,34.3l-1.2-.2a.767.767,0,0,1-.6-1l.1-.4c.1-.2,0-.4-.1-.6l-.8-1.6a.365.365,0,0,1-.1-.3v-.4a.726.726,0,0,1,.6-.7l5.5-1.6a.611.611,0,0,1,.6.1l3.4,2.2a.555.555,0,0,1,.3.5l.4,1.8a.714.714,0,0,1-.5.9l-2.3.9a1.349,1.349,0,0,0-.4.3l-1.4,2.3a.686.686,0,0,1-.9.3l-.5-.2a.756.756,0,0,1-.4-.2l-1.4-1.7c0-.3-.105-.4-.3-.4Z"/><path class="a" d="M94.9,33.2a.4.4,0,0,0-.4-.2l-4.2.6a.585.585,0,0,1-.4-.1l-1.2-1.4c-.1-.1-.1-.1-.2-.1l-5.6-1h-.2l-3,.6a3.832,3.832,0,0,1-3.4-.9,3.161,3.161,0,0,0-2.3-.9h-6.9c-.1,0-.2,0-.2.1l-1.5,1c-.1.1-.2.2-.2.3a1.176,1.176,0,0,1-.8,1.1l-1,.3a.6.6,0,0,1-.8-.4.515.515,0,0,0-.4-.2h-3L58,32h-.1L55,31.1a3.049,3.049,0,0,0-2.1.1l-.8.4a2.318,2.318,0,0,0-1.4,1.5l-.3.8a2,2,0,0,0,.1,1.7l.3.5a.515.515,0,0,0,.4.2h.4a1.5,1.5,0,0,0,1.4-1c0-.1.1-.2.3-.3l.6-.2c.3-.1.5.1.6.4l.1,1.1a1.544,1.544,0,0,1-1,1.6l-1.6.6a.382.382,0,0,1-.5-.3l-.2-.8a.32.32,0,0,0-.3-.3l-.7-.1c-.3,0-.5.1-.5.4v1c0,.2-.1.3-.3.4l-1.5.4a.214.214,0,0,0-.2.2l-.5,1a.3.3,0,0,0,0,.4l.2.4a.442.442,0,0,1-.4.6,1,1,0,0,0-1,1.2l.2.8c0,.2.2.3.4.3h1.2c.2,0,.3-.1.4-.3l.2-.6c0-.2.2-.3.4-.3l1.3.1c.1,0,.2,0,.2-.1l.7-.4a.469.469,0,0,1,.6.1l.7,1c.1.1.1.2.1.4v.1c-.1.3.3.7.6.5l.2-.1a.365.365,0,0,0,.2-.5l-.4-1.2a.365.365,0,0,1,.2-.5h.1a.436.436,0,0,1,.5.1l.5.6a2.042,2.042,0,0,0,2.3.7h.1c.2-.1.3,0,.4.1L58.4,45c.1.1.1.2.1.4l-.2,1.1a.32.32,0,0,1-.3.3l-3.4.8h-.3l-1.9-.9a.214.214,0,0,1-.2-.2A2.454,2.454,0,0,0,50,45.1L48.5,45a.365.365,0,0,0-.3.1l-2.5,2a6.109,6.109,0,0,0-2.3,4.1c0,.1-.1.2-.2.3l-.3.2a.515.515,0,0,0-.2.4,4.806,4.806,0,0,0,1.7,3.7l.9.8a.365.365,0,0,0,.3.1h3.9c.1,0,.2,0,.2.1l1.1.7c.1.1.2.2.2.3l.1,1.9a.52.52,0,0,0,.2.4l1.3.6c.2.1.3.2.2.4l-.4,3.5a3.42,3.42,0,0,0,.5,2.2l.5.7c0,.1.1.1.1.2l.1,1a2.439,2.439,0,0,0,2,2.2,2.575,2.575,0,0,0,2.2-.7l.6-.5a5.136,5.136,0,0,0,1.5-3.7V64.9c0-.1.1-.3.2-.3l.9-.7a3.033,3.033,0,0,0,1.2-2.5V58.9a.365.365,0,0,1,.1-.3l1.9-2.1c.1-.1.1-.2.1-.4a2.642,2.642,0,0,0-1.8-1.9l-.2-.1a1.593,1.593,0,0,1-1.2-1.5,1.611,1.611,0,0,0-.5-1.1l-.7-.7a.365.365,0,0,1-.1-.3l.1-1.3a.428.428,0,0,1,.4-.4l-.3,0c.1,0,.3.1.3.2L62,51a.365.365,0,0,1,.1.3v1c0,.2.1.4.3.4l.6.2h.3l1.9-1.1a1.26,1.26,0,0,0,.4-1.9L64.3,48a.368.368,0,0,1,.3-.6l1.1-.1c.2,0,.3.1.4.3l.4,1c0,.1.1.1.1.2l2.2,1.6h.1l1.4.6c.2.1.3.2.3.4l-.2.6a2.74,2.74,0,0,0,.8,2.3l1.3,1.2a1.064,1.064,0,0,0,1.7-.4l1.4-3.8a.555.555,0,0,1,.5-.3l1.3.2a.32.32,0,0,1,.3.3l1.1,3.1c0,.1.1.1.1.2l.4.4a.4.4,0,0,0,.7-.3l-.1-.7c0-.3.2-.5.4-.4.1,0,.2.1.3.1a1.074,1.074,0,0,0,1.4.2l.9-.6a.515.515,0,0,0,.2-.4L83,49.3c0-.2.1-.4.3-.4l1.1-.3a.32.32,0,0,0,.3-.3l.5-1.8a.585.585,0,0,0-.1-.4l-.7-.8a1.806,1.806,0,0,1-.2-2.1l.2-.5c.1-.1.2-.2.3-.2a1.207,1.207,0,0,0,1-.7l2.5-5.3a.481.481,0,0,1,.6-.2l.6.3c.1.1.2.2.2.3v1.4a.52.52,0,0,0,.2.4,1.047,1.047,0,0,0,1.4-.5l.9-1.9c0-.1.1-.1.2-.2l2-1.2a1.127,1.127,0,0,0,.6-1.7Z"/><path class="a" d="M63.8,62.2a.721.721,0,0,0-.6.3l-.8,1.1a.6.6,0,0,0-.1.4v1.7c0,.2.1.3.2.5l.3.3a.76.76,0,0,0,.9.2,1,1,0,0,0,.4-.5l.6-3a.607.607,0,0,0-.3-.7l-.1-.1a1.657,1.657,0,0,0-.492-.2Z"/><path class="a" d="M46.8,38.3l.7-.2a.668.668,0,0,0,.4-.5V36.2a.472.472,0,0,0-.5-.5c-.2,0-.5.2-.5.4l-.1.4a.428.428,0,0,1-.4.4H46c-.3,0-.4.3-.4.5v.2a.456.456,0,0,0,.4.5l.6.1c0,.1.1.1.2.1Z"/><path class="a" d="M84.9,61.1l-.3-.4a.754.754,0,0,0-.4-.2l-1.5.3c-.1,0-.2.1-.3.2l-.9,1.1a.354.354,0,0,1-.2.1l-.7.3a2.146,2.146,0,0,0-1.1,1.9l.1,1.5a.428.428,0,0,0,.4.4h2.9a.365.365,0,0,1,.3.1l.8.7c.1,0,.1.1.2.1l2.3.5c.2,0,.4,0,.5-.2l1.2-1.6a.365.365,0,0,0,.1-.3v-2.1l-1.3-3a.214.214,0,0,0-.2-.2c-.3-.1-.7.1-.7.4a.56.56,0,0,1-.6.5l-.3-.1c-.2.2-.3.094-.3,0Z"/><path class="a" d="M87.6,42.2l.3.6a.441.441,0,0,1,0,.5l-1,2.6a.632.632,0,0,0,0,.6l.3.5a.667.667,0,0,0,.7.4.756.756,0,0,0,.7-.4l1.2-2.1a.743.743,0,0,0,.1-.5L89.4,42a.829.829,0,0,0-.4-.6l-.4-.2a1.082,1.082,0,0,0-.8,0,1.228,1.228,0,0,0-.2,1Z"/><path class="a" d="M89.8,66.3l-.2.3a.1.1,0,0,1-.1.1l-.6,1.1a.214.214,0,0,1-.2.2l-1.6,1.3a.776.776,0,0,0-.2.8l.1.2a.679.679,0,0,0,.6.4h.8a.679.679,0,0,0,.6-.4l.6-1.9c0-.1.1-.2.2-.3l.9-.7a.631.631,0,0,0,.1-.9l-.1-.1a.519.519,0,0,0-.9-.105Z"/></g></svg>